<?xml version="1.0" encoding="UTF-8"?>
<svg width="40px" height="36px" viewBox="0 0 40 36" version="1.1" xmlns="http://www.w3.org/2000/svg" xmlns:xlink="http://www.w3.org/1999/xlink">
    <title>AngleRight</title>
    <g id="AngleRight" stroke="none" stroke-width="1" fill="none" fill-rule="evenodd">
        <path d="M29.0986328,17.6621094 C29.0849609,16.9101562 28.8251953,16.3222656 28.2099609,15.7070312 L18.5849609,6.28710938 C18.1337891,5.8359375 17.6142578,5.63085938 16.9716797,5.63085938 C15.6728516,5.63085938 14.6064453,6.68359375 14.6064453,7.95507812 C14.6064453,8.59765625 14.8662109,9.19921875 15.3720703,9.69140625 L23.6162109,17.6484375 L15.3720703,25.6328125 C14.8798828,26.125 14.6064453,26.7128906 14.6064453,27.3691406 C14.6064453,28.6542969 15.6728516,29.7070312 16.9716797,29.7070312 C17.6005859,29.7070312 18.1337891,29.4882812 18.5849609,29.0507812 L28.2099609,19.6035156 C28.8388672,19.0019531 29.0986328,18.4003906 29.0986328,17.6621094 Z" id="Path" fill="#5E5C5C" fill-rule="nonzero"></path>
    </g>
</svg>