<?xml version="1.0" encoding="UTF-8"?>
<svg width="9px" height="9px" viewBox="0 0 9 9" version="1.1" xmlns="http://www.w3.org/2000/svg" xmlns:xlink="http://www.w3.org/1999/xlink">
    <title>Check</title>
    <g id="Check" stroke="none" stroke-width="1" fill="none" fill-rule="evenodd">
        <g id="SELECTED-Copy" fill="#333333" fill-rule="nonzero">
            <path d="M3.6009667,9 C4.02631579,9 4.35499463,8.84057143 4.58216971,8.48571429 L8.77765843,1.85657143 C8.93233083,1.60971429 9,1.35257143 9,1.12628571 C9,0.483428571 8.52631579,0 7.9027927,0 C7.48227712,0 7.21160043,0.159428571 6.95059076,0.586285714 L3.58163265,6.18685714 L1.91407089,4.14 C1.69172932,3.87257143 1.43555317,3.74914286 1.08754028,3.74914286 C0.464017186,3.74914286 0,4.23257143 0,4.88057143 C0,5.17371429 0.0773361976,5.41028571 0.314178303,5.69314286 L2.66326531,8.56285714 C2.91460795,8.86628571 3.21428571,9 3.6009667,9 Z" id="Path"></path>
        </g>
    </g>
</svg>