<?xml version="1.0" encoding="UTF-8"?>
<svg width="10px" height="10px" viewBox="0 0 10 10" version="1.1" xmlns="http://www.w3.org/2000/svg" xmlns:xlink="http://www.w3.org/1999/xlink">
    <title>FoldCaret</title>
    <g id="FoldCaret" stroke="none" stroke-width="1" fill="none" fill-rule="evenodd">
        <path d="M5.53666954,8.35897059 L8.87736885,1.67757199 C9.1636723,1.10496509 8.93157749,0.408680677 8.35897059,0.122377227 C8.19801302,0.041898441 8.02052838,-4.79616347e-14 7.84057234,-4.79616347e-14 L1.15917373,-4.79616347e-14 C0.518979758,-4.79616347e-14 0,0.518979758 0,1.15917373 C0,1.33912977 0.041898441,1.51661442 0.122377227,1.67757199 L3.46307653,8.35897059 C3.74937998,8.93157749 4.44566439,9.1636723 5.01827129,8.87736885 C5.24260317,8.76520291 5.4245036,8.58330248 5.53666954,8.35897059 Z" id="Triangle-Copy-2" fill="#333333" transform="translate(4.500000, 4.500000) rotate(-90.000000) translate(-4.500000, -4.500000) "></path>
        <path d="M6.15185505,9.28774511 L9.86374316,1.86396888 C10.1818581,1.22773899 9.92397499,0.454089641 9.28774511,0.135974697 C9.10890336,0.0465538233 8.9116982,1.86517468e-13 8.71174705,1.86517468e-13 L1.28797082,1.86517468e-13 C0.576644176,1.86517468e-13 -2.27373675e-13,0.576644176 -2.27373675e-13,1.28797082 C-2.27373675e-13,1.48792197 0.0465538233,1.68512713 0.135974697,1.86396888 L3.84786281,9.28774511 C4.16597776,9.92397499 4.9396271,10.1818581 5.57585699,9.86374316 C5.82511464,9.73911434 6.02722623,9.53700275 6.15185505,9.28774511 Z" id="Triangle-Copy-2" fill="#333333" transform="translate(5.000000, 5.000000) rotate(-90.000000) translate(-5.000000, -5.000000) "></path>
    </g>
</svg>