<svg width="16px" height="16px" viewBox="0 0 16 16" version="1.1" xmlns="http://www.w3.org/2000/svg" xmlns:xlink="http://www.w3.org/1999/xlink">
    <g stroke="none" stroke-width="1" fill="none" fill-rule="evenodd">
        <path d="M8,16 C12.3784334,16 16,12.3765903 16,7.99592875 C16,3.61526718 12.370295,0 7.99186165,0 C3.61342828,0 0,3.61526718 0,7.99592875 C0,12.3765903 3.62156663,16 8,16 Z M8,14.3145038 C4.50050865,14.3145038 1.69277721,11.5053435 1.69277721,7.99592875 C1.69277721,4.49465649 4.4923703,1.67735369 7.99186165,1.67735369 C11.4994914,1.67735369 14.3153611,4.49465649 14.3153611,7.99592875 C14.3153611,11.5053435 11.4994914,14.3145038 8,14.3145038 Z M7.95930824,5.53689567 C8.55340793,5.53689567 9.017294,5.05648855 9.017294,4.4783715 C9.017294,3.88396947 8.55340793,3.41170483 7.95930824,3.41170483 C7.38148525,3.41170483 6.90132248,3.88396947 6.90132248,4.4783715 C6.90132248,5.05648855 7.38148525,5.53689567 7.95930824,5.53689567 Z M6.64903357,12.1974555 L9.74160732,12.1974555 C10.0915565,12.1974555 10.3682604,11.9450382 10.3682604,11.5867684 C10.3682604,11.2529262 10.0915565,10.9842239 9.74160732,10.9842239 L8.91963377,10.9842239 L8.91963377,7.47480916 C8.91963377,7.00254453 8.68362157,6.69312977 8.24415056,6.69312977 L6.78738555,6.69312977 C6.43743642,6.69312977 6.16073245,6.96183206 6.16073245,7.2956743 C6.16073245,7.65394402 6.43743642,7.90636132 6.78738555,7.90636132 L7.55239064,7.90636132 L7.55239064,10.9842239 L6.64903357,10.9842239 C6.29908444,10.9842239 6.02238047,11.2529262 6.02238047,11.5867684 C6.02238047,11.9450382 6.29908444,12.1974555 6.64903357,12.1974555 Z" id="Shape" fill="#333333" fill-rule="nonzero"></path>
    </g>
</svg>