<?xml version="1.0" encoding="UTF-8"?>
<svg width="40px" height="36px" viewBox="0 0 40 36" version="1.1" xmlns="http://www.w3.org/2000/svg" xmlns:xlink="http://www.w3.org/1999/xlink">
    <title>People</title>
    <g id="People" stroke="none" stroke-width="1" fill="none" fill-rule="evenodd">
        <path d="M27.2729492,18.6289062 C30.3198242,18.6289062 32.8833008,15.9335938 32.8833008,12.4619141 C32.8833008,9.06347656 30.3051758,6.44140625 27.2729492,6.44140625 C24.2407227,6.44140625 21.6625977,9.10742188 21.6625977,12.4765625 C21.6625977,15.9335938 24.2260742,18.6289062 27.2729492,18.6289062 Z M11.2329102,18.9365234 C13.8842773,18.9365234 16.1108398,16.578125 16.1108398,13.5605469 C16.1108398,10.6015625 13.8549805,8.33105469 11.2329102,8.33105469 C8.59619141,8.33105469 6.34033203,10.6455078 6.34033203,13.5898438 C6.34033203,16.578125 8.58154297,18.9365234 11.2329102,18.9365234 Z M3.61572266,31.5488281 L13.9428711,31.5488281 C12.4487305,29.4101562 14.0161133,25.2353516 17.1948242,22.7304688 C15.6713867,21.7636719 13.6938477,21.0458984 11.2182617,21.0458984 C5.05126953,21.0458984 1.00830078,25.5869141 1.00830078,29.3222656 C1.00830078,30.7285156 1.71142578,31.5488281 3.61572266,31.5488281 Z M18.659668,31.5488281 L35.871582,31.5488281 C38.2006836,31.5488281 38.9916992,30.8310547 38.9916992,29.5273438 C38.9916992,25.9677734 34.4506836,21.0751953 27.2583008,21.0751953 C20.0805664,21.0751953 15.5395508,25.9677734 15.5395508,29.5273438 C15.5395508,30.8310547 16.3305664,31.5488281 18.659668,31.5488281 Z" id="Shape" fill="#5E5C5C" fill-rule="nonzero"></path>
    </g>
</svg>