<?xml version="1.0" encoding="UTF-8"?>
<svg width="40px" height="36px" viewBox="0 0 40 36" version="1.1" xmlns="http://www.w3.org/2000/svg" xmlns:xlink="http://www.w3.org/1999/xlink">
    <title>PlusCircle</title>
    <g id="PlusCircle" stroke="none" stroke-width="1" fill="none" fill-rule="evenodd">
        <path d="M20.5,32.1015625 C27.9101562,32.1015625 33.9394531,26.0722656 33.9394531,18.6621094 C33.9394531,11.2519531 27.9101562,5.22265625 20.5,5.22265625 C13.0898438,5.22265625 7.06054688,11.2519531 7.06054688,18.6621094 C7.06054688,26.0722656 13.0898438,32.1015625 20.5,32.1015625 Z M14.1699219,18.6757812 C14.1699219,17.8828125 14.7304688,17.3222656 15.5097656,17.3222656 L19.1738281,17.3222656 L19.1738281,13.6582031 C19.1738281,12.8925781 19.7207031,12.3320312 20.4863281,12.3320312 C21.2792969,12.3320312 21.8261719,12.8789062 21.8261719,13.6582031 L21.8261719,17.3222656 L25.5039062,17.3222656 C26.2695312,17.3222656 26.8300781,17.8828125 26.8300781,18.6757812 C26.8300781,19.4414062 26.2695312,19.9882812 25.5039062,19.9882812 L21.8261719,19.9882812 L21.8261719,23.6660156 C21.8261719,24.4316406 21.2792969,24.9921875 20.4863281,24.9921875 C19.7207031,24.9921875 19.1738281,24.4316406 19.1738281,23.6660156 L19.1738281,19.9882812 L15.5097656,19.9882812 C14.7304688,19.9882812 14.1699219,19.4414062 14.1699219,18.6757812 Z" id="Shape" fill="#5E5C5C" fill-rule="nonzero"></path>
    </g>
</svg>