<?xml version="1.0" encoding="UTF-8"?>
<svg width="24px" height="23px" viewBox="0 0 24 23" version="1.1" xmlns="http://www.w3.org/2000/svg" xmlns:xlink="http://www.w3.org/1999/xlink">
    <title>Artboard</title>
    <g id="Artboard" stroke="none" stroke-width="1" fill="none" fill-rule="evenodd">
        <g id="􀈠" transform="translate(2.1328, 2.2443)" fill="#333333" fill-rule="nonzero">
            <path d="M11.3399398,19.000149 C10.9125272,19.000149 10.6022211,18.8498743 10.4090214,18.549325 C10.2158218,18.2487757 10.0483672,17.868161 9.90665768,17.4074809 L8.49869857,12.7423874 C8.40604616,12.4344398 8.37334969,12.1798691 8.40060916,11.9786754 C8.42786863,11.7774816 8.53221431,11.5760396 8.7136462,11.3743493 L17.9674172,1.38099755 C18.0201486,1.32200985 18.0463406,1.25919886 18.045993,1.1925646 C18.0456454,1.12593034 18.0197514,1.06947493 17.968311,1.02319838 C17.9226302,0.982582267 17.8664728,0.960834274 17.7998385,0.957954403 C17.7332042,0.955074532 17.6700457,0.980000314 17.6103628,1.03273175 L7.64799454,10.3122726 C7.43677089,10.5024434 7.23113318,10.6088249 7.03108144,10.631417 C6.8310297,10.6540091 6.5809526,10.6183334 6.28085016,10.5243901 L1.51327302,9.06578493 C1.0756319,8.93619073 0.71400945,8.77494277 0.42840567,8.58204105 C0.14280189,8.38913933 0,8.08181239 0,7.66006021 C0,7.31854721 0.129321113,7.02857397 0.38796334,6.79014049 C0.646605567,6.55170702 0.969324929,6.35820946 1.35612142,6.20964783 L16.9239604,0.242356059 C17.1294243,0.167380101 17.3216557,0.108243435 17.5006546,0.0649460612 C17.6796535,0.0216486871 17.845122,0 17.99706,0 C18.3041139,0 18.548034,0.08897809 18.7288204,0.26693427 C18.9096068,0.44489045 19,0.687395467 19,0.994449323 C19,1.14579152 18.9783761,1.31237717 18.9351284,1.49420628 C18.8918807,1.67603539 18.829889,1.86997983 18.7491533,2.07603958 L12.816271,17.56642 C12.6504302,18.0049548 12.4468779,18.3535434 12.2056142,18.6121856 C11.9643505,18.8708278 11.6757924,19.000149 11.3399398,19.000149 Z" id="Path"></path>
        </g>
    </g>
</svg>