<svg width="20px" height="16px" viewBox="0 0 20 16" version="1.1" xmlns="http://www.w3.org/2000/svg" xmlns:xlink="http://www.w3.org/1999/xlink">
    <g stroke="none" stroke-width="1" fill="none" fill-rule="evenodd">
        <g id="ô€š" fill="#5E5C5C" fill-rule="nonzero">
            <path d="M2.81514477,16 L17.1848552,16 C19.0378619,16 20,15.0185706 20,13.1727631 L20,2.81823298 C20,0.972425436 19.0378619,0 17.1848552,0 L2.81514477,0 C0.979955457,0 0,0.972425436 0,2.81823298 L0,13.1727631 C0,15.0275746 0.979955457,16 2.81514477,16 Z M2.94877506,14.1992122 C2.19153675,14.1992122 1.78173719,13.8030388 1.78173719,13.0016882 L1.78173719,2.99831176 C1.78173719,2.19696117 2.19153675,1.80078784 2.94877506,1.80078784 L6.82405345,1.80078784 L6.82405345,14.1992122 L2.94877506,14.1992122 Z M17.0512249,1.80078784 C17.7995546,1.80078784 18.2182628,2.19696117 18.2182628,2.99831176 L18.2182628,13.0016882 C18.2182628,13.8030388 17.7995546,14.1992122 17.0512249,14.1992122 L8.49888641,14.1992122 L8.49888641,1.80078784 L17.0512249,1.80078784 Z M5.15812918,4.90714688 C5.47884187,4.90714688 5.74610245,4.62802476 5.74610245,4.33089477 C5.74610245,4.02476083 5.47884187,3.7636466 5.15812918,3.7636466 L3.46547884,3.7636466 C3.14476615,3.7636466 2.87750557,4.02476083 2.87750557,4.33089477 C2.87750557,4.62802476 3.14476615,4.90714688 3.46547884,4.90714688 L5.15812918,4.90714688 Z M5.15812918,7.21215532 C5.47884187,7.21215532 5.74610245,6.95104108 5.74610245,6.64490715 C5.74610245,6.33877321 5.47884187,6.07765898 5.15812918,6.07765898 L3.46547884,6.07765898 C3.14476615,6.07765898 2.87750557,6.33877321 2.87750557,6.64490715 C2.87750557,6.95104108 3.14476615,7.21215532 3.46547884,7.21215532 L5.15812918,7.21215532 Z M5.15812918,9.5261677 C5.47884187,9.5261677 5.74610245,9.26505346 5.74610245,8.95891953 C5.74610245,8.65278559 5.47884187,8.39167136 5.15812918,8.39167136 L3.46547884,8.39167136 C3.14476615,8.39167136 2.87750557,8.65278559 2.87750557,8.95891953 C2.87750557,9.26505346 3.14476615,9.5261677 3.46547884,9.5261677 L5.15812918,9.5261677 Z" id="Shape"></path>
        </g>
    </g>
</svg>