<?xml version="1.0" encoding="UTF-8"?>
<svg width="40px" height="36px" viewBox="0 0 40 36" version="1.1" xmlns="http://www.w3.org/2000/svg" xmlns:xlink="http://www.w3.org/1999/xlink">
    <title>Sidebar</title>
    <g id="Sidebar" stroke="none" stroke-width="1" fill="none" fill-rule="evenodd">
        <g id="ô€š" transform="translate(3.5303, 6.002)" fill="#5E5C5C" fill-rule="nonzero">
            <path d="M4.62890625,26.0302734 L28.2568359,26.0302734 C31.3037109,26.0302734 32.8857422,24.4335938 32.8857422,21.4306641 L32.8857422,4.58496094 C32.8857422,1.58203125 31.3037109,0 28.2568359,0 L4.62890625,0 C1.61132812,0 0,1.58203125 0,4.58496094 L0,21.4306641 C0,24.4482422 1.61132812,26.0302734 4.62890625,26.0302734 Z M4.84863281,23.1005859 C3.60351562,23.1005859 2.9296875,22.4560547 2.9296875,21.1523438 L2.9296875,4.87792969 C2.9296875,3.57421875 3.60351562,2.9296875 4.84863281,2.9296875 L11.2207031,2.9296875 L11.2207031,23.1005859 L4.84863281,23.1005859 Z M28.0371094,2.9296875 C29.2675781,2.9296875 29.9560547,3.57421875 29.9560547,4.87792969 L29.9560547,21.1523438 C29.9560547,22.4560547 29.2675781,23.1005859 28.0371094,23.1005859 L13.9746094,23.1005859 L13.9746094,2.9296875 L28.0371094,2.9296875 Z M8.48144531,7.98339844 C9.00878906,7.98339844 9.44824219,7.52929688 9.44824219,7.04589844 C9.44824219,6.54785156 9.00878906,6.12304688 8.48144531,6.12304688 L5.69824219,6.12304688 C5.17089844,6.12304688 4.73144531,6.54785156 4.73144531,7.04589844 C4.73144531,7.52929688 5.17089844,7.98339844 5.69824219,7.98339844 L8.48144531,7.98339844 Z M8.48144531,11.7333984 C9.00878906,11.7333984 9.44824219,11.3085938 9.44824219,10.8105469 C9.44824219,10.3125 9.00878906,9.88769531 8.48144531,9.88769531 L5.69824219,9.88769531 C5.17089844,9.88769531 4.73144531,10.3125 4.73144531,10.8105469 C4.73144531,11.3085938 5.17089844,11.7333984 5.69824219,11.7333984 L8.48144531,11.7333984 Z M8.48144531,15.4980469 C9.00878906,15.4980469 9.44824219,15.0732422 9.44824219,14.5751953 C9.44824219,14.0771484 9.00878906,13.6523438 8.48144531,13.6523438 L5.69824219,13.6523438 C5.17089844,13.6523438 4.73144531,14.0771484 4.73144531,14.5751953 C4.73144531,15.0732422 5.17089844,15.4980469 5.69824219,15.4980469 L8.48144531,15.4980469 Z" id="Shape"></path>
        </g>
    </g>
</svg>