<svg width="20px" height="16px" viewBox="0 0 20 16" version="1.1" xmlns="http://www.w3.org/2000/svg" xmlns:xlink="http://www.w3.org/1999/xlink">
    <g stroke="none" stroke-width="1" fill="none" fill-rule="evenodd">
        <g id="􀧈" fill="#5E5C5C" fill-rule="nonzero">
            <path d="M2.81514477,16 L17.1848552,16 C19.0378619,16 20,15.027027 20,13.1801802 L20,2.81981982 C20,0.972972973 19.0378619,0 17.1848552,0 L2.81514477,0 C0.979955457,0 0,0.972972973 0,2.81981982 L0,13.1801802 C0,15.027027 0.979955457,16 2.81514477,16 Z M2.94877506,14.1981982 C2.19153675,14.1981982 1.78173719,13.8108108 1.78173719,13 L1.78173719,2.99099099 C1.78173719,2.18918919 2.19153675,1.8018018 2.94877506,1.8018018 L9.1403118,1.8018018 L9.1403118,14.1981982 L2.94877506,14.1981982 Z M17.0512249,1.8018018 C17.7995546,1.8018018 18.2182628,2.18918919 18.2182628,2.99099099 L18.2182628,13 C18.2182628,13.8108108 17.7995546,14.1981982 17.0512249,14.1981982 L10.8685969,14.1981982 L10.8685969,1.8018018 L17.0512249,1.8018018 Z" id="Shape"></path>
        </g>
    </g>
</svg>