<?xml version="1.0" encoding="UTF-8"?>
<svg width="22px" height="22px" viewBox="0 0 22 22" version="1.1" xmlns="http://www.w3.org/2000/svg" xmlns:xlink="http://www.w3.org/1999/xlink">
    <title>StatusPending</title>
    <g id="StatusPending" stroke="none" stroke-width="1" fill="none" fill-rule="evenodd">
        <g id="ô€-copy" fill="#333333" fill-rule="nonzero">
            <path d="M11,22 C17.0445545,22 22,17.0336634 22,11 C22,4.95544554 17.0445545,0 11,0 C4.95544554,0 0,4.95544554 0,11 C0,17.0336634 4.95544554,22 11,22 Z M11,18.9831683 C6.57821782,18.9831683 3.01683168,15.4217822 3.01683168,11 C3.01683168,6.57821782 6.57821782,3.00594059 11,3.00594059 C15.4217822,3.00594059 18.9831683,6.57821782 18.9831683,11 C18.9831683,15.4217822 15.4217822,18.9831683 11,18.9831683 Z M11.0091794,12.6490014 C10.0177997,12.6490014 9.26508547,12.0088009 9.26508547,11 C9.26508547,10.0105991 10.0177997,9.35099857 11.0091794,9.35099857 C12.0189181,9.35099857 12.7349145,10.0105991 12.7349145,11 C12.7349145,12.0088009 12.0189181,12.6490014 11.0091794,12.6490014 Z M6.30715055,12.6490014 C5.31577082,12.6490014 4.56305658,12.0088009 4.56305658,11 C4.56305658,10.0105991 5.31577082,9.35099857 6.30715055,9.35099857 C7.31688917,9.35099857 8.03288565,10.0105991 8.03288565,11 C8.03288565,12.0088009 7.31688917,12.6490014 6.30715055,12.6490014 Z M15.7112083,12.6490014 C14.7198286,12.6490014 13.9671144,12.0088009 13.9671144,11 C13.9671144,10.0105991 14.7198286,9.35099857 15.7112083,9.35099857 C16.7209469,9.35099857 17.4369434,10.0105991 17.4369434,11 C17.4369434,12.0088009 16.7209469,12.6490014 15.7112083,12.6490014 Z" id="Shape"></path>
        </g>
    </g>
</svg>