<?xml version="1.0" encoding="UTF-8"?>
<svg width="22px" height="22px" viewBox="0 0 22 22" version="1.1" xmlns="http://www.w3.org/2000/svg" xmlns:xlink="http://www.w3.org/1999/xlink">
    <title>StatusQuestionActive</title>
    <g id="StatusQuestionActive" stroke="none" stroke-width="1" fill="none" fill-rule="evenodd">
        <path d="M11,22 C17.0445545,22 22,17.0336634 22,11 C22,4.95544554 17.0445545,0 11,0 C4.95544554,0 0,4.95544554 0,11 C0,17.0336634 4.95544554,22 11,22 Z M10.5903514,12.7428763 C9.91735716,12.7428763 9.34677513,12.3917489 9.34677513,11.7480153 L9.34677513,11.6894941 C9.34677513,11.0164999 9.80031469,10.5775907 10.4440483,10.1240511 C11.1609334,9.6266206 11.5852123,9.33401443 11.5852123,8.89510517 C11.5852123,8.52934745 11.2926062,8.28063221 10.8683272,8.28063221 C10.4733089,8.28063221 10.2099633,8.4415656 9.91735716,8.73417178 C9.68327223,8.9536264 9.40529636,9.23160227 8.84934463,9.23160227 C8.05930797,9.23160227 7.66428964,8.76343239 7.66428964,8.20748067 C7.66428964,6.9053832 9.33214482,6.11534653 10.9853697,6.11534653 C12.945831,6.11534653 14.3357104,7.22724999 14.3357104,8.74880208 C14.3357104,10.0070086 13.4578918,10.3873966 12.6971158,10.9287181 C12.2874672,11.2066939 12.0094913,11.4554092 11.8924488,11.8796881 C11.7022548,12.4649005 11.190194,12.7428763 10.5903514,12.7428763 Z M10.5757211,15.8737624 C9.78568439,15.8737624 9.18584173,15.3909622 9.18584173,14.6301861 C9.18584173,13.8840404 9.78568439,13.3866099 10.5757211,13.3866099 C11.380388,13.3866099 11.9509701,13.8840404 11.9509701,14.6301861 C11.9509701,15.3909622 11.380388,15.8737624 10.5757211,15.8737624 Z" id="Shape" fill="#333333" fill-rule="nonzero"></path>
    </g>
</svg>