<?xml version="1.0" encoding="UTF-8"?>
<svg width="22px" height="22px" viewBox="0 0 22 22" version="1.1" xmlns="http://www.w3.org/2000/svg" xmlns:xlink="http://www.w3.org/1999/xlink">
    <title>StatusPartiallyConfirmed</title>
    <g id="StatusPartiallyConfirmed" stroke="none" stroke-width="1" fill="none" fill-rule="evenodd">
        <g id="ô€·" fill="#333333" fill-rule="nonzero">
            <path d="M11,22 C17.0445545,22 22,17.0336634 22,11 C22,4.95544554 17.0445545,0 11,0 C4.95544554,0 0,4.95544554 0,11 C0,17.0336634 4.95544554,22 11,22 Z M11,18.9831683 C6.57821782,18.9831683 3.01683168,15.4217822 3.01683168,11 C3.01683168,6.57821782 6.57821782,3.00594059 11,3.00594059 C15.4217822,3.00594059 18.9831683,6.57821782 18.9831683,11 C18.9831683,15.4217822 15.4217822,18.9831683 11,18.9831683 Z M11.0108911,14.3217822 C12.8405941,14.3217822 14.3544554,12.829703 14.3544554,10.9782178 C14.3544554,9.14851485 12.8405941,7.65643564 11.0108911,7.65643564 C9.17029703,7.65643564 7.66732673,9.14851485 7.66732673,10.9782178 C7.66732673,12.829703 9.17029703,14.3217822 11.0108911,14.3217822 Z" id="Shape"></path>
        </g>
    </g>
</svg>