<?xml version="1.0" encoding="UTF-8"?>
<svg width="20px" height="20px" viewBox="0 0 20 20" version="1.1" xmlns="http://www.w3.org/2000/svg" xmlns:xlink="http://www.w3.org/1999/xlink">
    <title>StatusAwaitingConfirmation</title>
    <g id="StatusAwaitingConfirmation" stroke="none" stroke-width="1" fill="none" fill-rule="evenodd">
        <g id="ôœž" transform="translate(1.320312, 2.781250)" fill="#333333" fill-rule="nonzero">
            <path d="M7.890625,15.78125 C8.890625,15.78125 9.8515625,15.59375 10.7421875,15.2421875 C10.2265625,14.7109375 9.8359375,14.0546875 9.6171875,13.34375 C9.0703125,13.5234375 8.4921875,13.6171875 7.890625,13.6171875 C4.71875,13.6171875 2.1640625,11.0625 2.1640625,7.890625 C2.1640625,4.71875 4.71875,2.15625 7.890625,2.15625 C10.671875,2.15625 13,4.1484375 13.5,6.7890625 C14.1953125,6.640625 15,6.65625 15.7109375,6.8671875 C15.203125,3.0078125 11.875,0 7.890625,0 C3.5546875,0 0,3.5546875 0,7.890625 C0,12.21875 3.5546875,15.78125 7.890625,15.78125 Z M7.125,11.40625 C7.4453125,11.40625 7.7421875,11.2421875 7.921875,10.9609375 L11.0390625,6.1953125 C11.1640625,6.0078125 11.234375,5.8046875 11.234375,5.625 C11.234375,5.1640625 10.8203125,4.828125 10.375,4.828125 C10.078125,4.828125 9.828125,4.984375 9.6328125,5.3046875 L7.109375,9.375 L5.953125,7.9765625 C5.7578125,7.75 5.5546875,7.640625 5.296875,7.640625 C4.828125,7.640625 4.453125,8.0078125 4.453125,8.4765625 C4.453125,8.6875 4.5234375,8.8671875 4.6953125,9.078125 L6.296875,10.9765625 C6.53125,11.25 6.7890625,11.40625 7.125,11.40625 Z M14.40625,15.6953125 C16.5546875,15.6953125 18.34375,13.90625 18.34375,11.7578125 C18.34375,9.6015625 16.5625,7.828125 14.40625,7.828125 C12.25,7.828125 10.46875,9.609375 10.46875,11.7578125 C10.46875,13.90625 12.25,15.6953125 14.40625,15.6953125 Z M14.25,12.6640625 C13.890625,12.6640625 13.5859375,12.4765625 13.5859375,12.1328125 L13.5859375,12.1015625 C13.5859375,11.7421875 13.828125,11.5078125 14.171875,11.265625 C14.5546875,11 14.78125,10.84375 14.78125,10.609375 C14.78125,10.4140625 14.625,10.28125 14.3984375,10.28125 C14.1875,10.28125 14.046875,10.3671875 13.890625,10.5234375 C13.765625,10.640625 13.6171875,10.7890625 13.3203125,10.7890625 C12.8984375,10.7890625 12.6875,10.5390625 12.6875,10.2421875 C12.6875,9.546875 13.578125,9.125 14.4609375,9.125 C15.5078125,9.125 16.25,9.71875 16.25,10.53125 C16.25,11.203125 15.78125,11.40625 15.375,11.6953125 C15.15625,11.84375 15.0078125,11.9765625 14.9453125,12.203125 C14.84375,12.515625 14.5703125,12.6640625 14.25,12.6640625 Z M14.2421875,14.3359375 C13.8203125,14.3359375 13.5,14.078125 13.5,13.671875 C13.5,13.2734375 13.8203125,13.0078125 14.2421875,13.0078125 C14.671875,13.0078125 14.9765625,13.2734375 14.9765625,13.671875 C14.9765625,14.078125 14.671875,14.3359375 14.2421875,14.3359375 Z" id="Shape"></path>
        </g>
    </g>
</svg>