<?xml version="1.0" encoding="UTF-8"?>
<svg width="140.832178px" height="17.2705078px" viewBox="0 0 140.832178 17.2705078" version="1.1" xmlns="http://www.w3.org/2000/svg" xmlns:xlink="http://www.w3.org/1999/xlink">
    <title>Group</title>
    <g id="ScheduelPad" stroke="none" stroke-width="1" fill="none" fill-rule="evenodd">
        <g id="Horizontal-DoublePane-SidebarOpen" transform="translate(-1044.000000, -14.000000)" fill="#5E5C5C" fill-rule="nonzero">
            <g id="Group" transform="translate(1044.000000, 14.000000)">
                <g id="Sync-with-Jobber" transform="translate(24.000000, 2.000000)">
                    <path d="M5.796875,3.71875 C5.76373106,3.35416667 5.61706913,3.06995739 5.3568892,2.86612216 C5.09670928,2.66228693 4.72632576,2.56036932 4.24573864,2.56036932 C3.92755682,2.56036932 3.6624053,2.60179924 3.45028409,2.68465909 C3.23816288,2.76751894 3.07907197,2.88103693 2.97301136,3.02521307 C2.86695076,3.1693892 2.81226326,3.3342803 2.80894886,3.51988636 C2.80232008,3.67234848 2.83297822,3.80658144 2.9009233,3.92258523 C2.96886837,4.03858902 3.06830019,4.14050663 3.19921875,4.22833807 C3.33013731,4.31616951 3.48839962,4.39322917 3.67400568,4.45951705 C3.85961174,4.52580492 4.06841856,4.58380682 4.30042614,4.63352273 L5.17542614,4.83238636 C5.67921402,4.94176136 6.1241714,5.0875947 6.5102983,5.26988636 C6.89642519,5.45217803 7.2212358,5.66927083 7.48473011,5.92116477 C7.74822443,6.17305871 7.94791667,6.46306818 8.08380682,6.79119318 C8.21969697,7.11931818 8.28929924,7.48721591 8.29261364,7.89488636 C8.28929924,8.53787879 8.12689394,9.08972538 7.80539773,9.55042614 C7.48390152,10.0111269 7.02237216,10.3641098 6.42080966,10.609375 C5.81924716,10.8546402 5.09422348,10.9772727 4.24573864,10.9772727 C3.39393939,10.9772727 2.65151515,10.8496686 2.01846591,10.5944602 C1.38541667,10.3392519 0.893229167,9.9514678 0.541903409,9.43110795 C0.190577652,8.91074811 0.00994318182,8.25284091 0,7.45738636 L2.35653409,7.45738636 C2.37642045,7.78551136 2.46425189,8.05894886 2.62002841,8.27769886 C2.77580492,8.49644886 2.99041193,8.66216856 3.26384943,8.77485795 C3.53728693,8.88754735 3.85464015,8.94389205 4.21590909,8.94389205 C4.54734848,8.94389205 4.82990057,8.89914773 5.06356534,8.80965909 C5.29723011,8.72017045 5.47703598,8.59588068 5.60298295,8.43678977 C5.72892992,8.27769886 5.79356061,8.0954072 5.796875,7.88991477 C5.79356061,7.69767992 5.73390152,7.53278883 5.61789773,7.39524148 C5.50189394,7.25769413 5.32374527,7.13837595 5.0834517,7.03728693 C4.84315814,6.93619792 4.5374053,6.84256629 4.16619318,6.75639205 L3.10227273,6.5078125 C2.22064394,6.30563447 1.52627841,5.97833807 1.01917614,5.5259233 C0.512073864,5.07350852 0.260179924,4.46117424 0.263494318,3.68892045 C0.260179924,3.05918561 0.429214015,2.50733902 0.770596591,2.03338068 C1.11197917,1.55942235 1.5842803,1.18986742 2.1875,0.924715909 C2.7907197,0.659564394 3.47845644,0.526988636 4.25071023,0.526988636 C5.03953598,0.526988636 5.72478693,0.660392992 6.30646307,0.927201705 C6.8881392,1.19401042 7.33972538,1.56770833 7.66122159,2.04829545 C7.9827178,2.52888258 8.1467803,3.08570076 8.15340909,3.71875 L5.796875,3.71875 Z" id="Path"></path>
                    <path d="M10.8269838,13.7116477 C10.5353171,13.7116477 10.2602224,13.6892756 10.0016997,13.6445312 C9.74317696,13.5997869 9.52111257,13.5409564 9.33550651,13.4680398 L9.87243833,11.703125 C10.1110747,11.7826705 10.3273389,11.829072 10.5212309,11.8423295 C10.715123,11.8555871 10.8824999,11.824929 11.0233616,11.7503551 C11.1642234,11.6757812 11.2727698,11.5440341 11.3490008,11.3551136 L11.4434611,11.1264205 L8.72897242,3.21164773 L11.274427,3.21164773 L12.6813872,8.66051136 L12.7609326,8.66051136 L14.1877792,3.21164773 L16.7481486,3.21164773 L13.8695974,11.5788352 C13.7303929,11.9964489 13.534015,12.3651752 13.2804639,12.6850142 C13.0269128,13.0048532 12.700445,13.2559186 12.3010605,13.4382102 C11.901676,13.6205019 11.4103171,13.7116477 10.8269838,13.7116477 Z" id="Path"></path>
                    <path d="M19.9079414,6.49289773 L19.9079414,10.8480114 L17.4768335,10.8480114 L17.4768335,3.21164773 L19.7886233,3.21164773 L19.7886233,4.61363636 L19.8731403,4.61363636 C20.0421744,4.14630682 20.3305267,3.77923769 20.7381971,3.51242898 C21.1458676,3.24562027 21.6314263,3.11221591 22.1948733,3.11221591 C22.7318051,3.11221591 23.198306,3.23236269 23.5943761,3.47265625 C23.9904462,3.71294981 24.2986848,4.0477036 24.519092,4.47691761 C24.7394992,4.90613163 24.8480456,5.40743371 24.8448049,5.98082386 L24.8448049,10.8480114 L22.4136233,10.8480114 L22.4136233,6.45809659 C22.4169376,6.03385417 22.3100484,5.70241477 22.0929556,5.46377841 C21.8758628,5.22514205 21.5750816,5.10582386 21.1906119,5.10582386 C20.9354036,5.10582386 20.7108534,5.16133996 20.5169613,5.27237216 C20.3230693,5.38340436 20.1739216,5.54166667 20.0695181,5.74715909 C19.9651147,5.95265152 19.9112558,6.20123106 19.9079414,6.49289773 Z" id="Path"></path>
                    <path d="M29.7187265,10.9921875 C28.9133287,10.9921875 28.2231062,10.8264678 27.6480588,10.4950284 C27.0730115,10.163589 26.6313685,9.70205966 26.3231299,9.11044034 C26.0148912,8.51882102 25.8607719,7.83357008 25.8607719,7.0546875 C25.8607719,6.27249053 26.0157198,5.58558239 26.3256157,4.99396307 C26.6355115,4.40234375 27.0779831,3.94081439 27.6530304,3.609375 C28.2280778,3.27793561 28.9149859,3.11221591 29.7137549,3.11221591 C30.4197208,3.11221591 31.0353694,3.23982008 31.5607009,3.49502841 C32.0860323,3.75023674 32.4970172,4.11067708 32.7936554,4.57634943 C33.0902937,5.04202178 33.2468988,5.58806818 33.2634708,6.21448864 L30.9914537,6.21448864 C30.9450522,5.82339015 30.8133051,5.51680871 30.5962122,5.29474432 C30.3791194,5.07267992 30.0965674,4.96164773 29.748556,4.96164773 C29.4668325,4.96164773 29.2199102,5.04036458 29.007789,5.1977983 C28.7956677,5.35523201 28.6307766,5.58723958 28.5131157,5.89382102 C28.3954547,6.20040246 28.3366242,6.57907197 28.3366242,7.02982955 C28.3366242,7.48058712 28.3954547,7.86091383 28.5131157,8.17080966 C28.6307766,8.48070549 28.7956677,8.71437027 29.007789,8.87180398 C29.2199102,9.02923769 29.4668325,9.10795455 29.748556,9.10795455 C29.9739348,9.10795455 30.173627,9.05989583 30.3476327,8.96377841 C30.5216384,8.86766098 30.6649859,8.72597064 30.7776753,8.53870739 C30.8903647,8.35144413 30.9616242,8.12357955 30.9914537,7.85511364 L33.2634708,7.85511364 C33.24027,8.48484848 33.0836649,9.03503788 32.7936554,9.50568182 C32.503646,9.97632576 32.0976327,10.3417377 31.5756157,10.6019176 C31.0535986,10.8620975 30.4346355,10.9921875 29.7187265,10.9921875 Z" id="Path"></path>
                    <polygon id="Path" points="38.5519709 10.8480114 36.5633346 3.21164773 39.0043857 3.21164773 40.033505 8.10369318 40.0981357 8.10369318 41.2018289 3.21164773 43.5832209 3.21164773 44.7167436 8.06889205 44.7813743 8.06889205 45.7806641 3.21164773 48.2217152 3.21164773 46.2281073 10.8480114 43.6279652 10.8480114 42.4347834 6.3984375 42.3502664 6.3984375 41.1570846 10.8480114"></polygon>
                    <path d="M49.0001136,10.8480114 L49.0001136,3.21164773 L51.4312216,3.21164773 L51.4312216,10.8480114 L49.0001136,10.8480114 Z M50.2181534,2.32173295 C49.8767708,2.32173295 49.583447,2.20821496 49.3381818,1.98117898 C49.0929167,1.75414299 48.9702841,1.47987689 48.9702841,1.15838068 C48.9702841,0.840198864 49.0929167,0.567589962 49.3381818,0.340553977 C49.583447,0.113517992 49.8767708,0 50.2181534,0 C50.5628504,0 50.8570028,0.113517992 51.1006108,0.340553977 C51.3442188,0.567589962 51.4660227,0.840198864 51.4660227,1.15838068 C51.4660227,1.47987689 51.3442188,1.75414299 51.1006108,1.98117898 C50.8570028,2.20821496 50.5628504,2.32173295 50.2181534,2.32173295 Z" id="Shape"></path>
                    <path d="M57.0837685,3.21164773 L57.0837685,5.00142045 L52.2662969,5.00142045 L52.2662969,3.21164773 L57.0837685,3.21164773 Z M53.2755298,1.38210227 L55.7066378,1.38210227 L55.7066378,8.44673295 C55.7066378,8.59588068 55.7306671,8.71602746 55.7787258,8.8071733 C55.8267846,8.89831913 55.8972154,8.96294981 55.9900185,9.00106534 C56.0828215,9.03918087 56.1938537,9.05823864 56.3231151,9.05823864 C56.4159181,9.05823864 56.5145213,9.04912405 56.6189247,9.03089489 C56.7233281,9.01266572 56.802045,8.99692235 56.8550753,8.98366477 L57.222973,10.7386364 C57.1069692,10.7717803 56.9437353,10.8132102 56.7332713,10.8629261 C56.5228073,10.912642 56.2717419,10.9441288 55.9800753,10.9573864 C55.4099995,10.9839015 54.921955,10.916785 54.5159418,10.7560369 C54.1099285,10.5952888 53.8000327,10.3442235 53.5862543,10.0028409 C53.3724758,9.66145833 53.268901,9.23224432 53.2755298,8.71519886 L53.2755298,1.38210227 Z" id="Shape"></path>
                    <path d="M60.7158637,6.49289773 L60.7158637,10.8480114 L58.2847557,10.8480114 L58.2847557,0.666193182 L60.6363182,0.666193182 L60.6363182,4.61363636 L60.7208353,4.61363636 C60.8931838,4.14299242 61.1757359,3.7750947 61.5684915,3.50994318 C61.9612472,3.24479167 62.4426629,3.11221591 63.0127387,3.11221591 C63.5496705,3.11221591 64.0170001,3.23070549 64.4147273,3.46768466 C64.8124546,3.70466383 65.1215218,4.03858902 65.341929,4.46946023 C65.5623362,4.90033144 65.6708826,5.40411932 65.6676419,5.98082386 L65.6676419,10.8480114 L63.2364603,10.8480114 L63.2364603,6.45809659 C63.2397747,6.03385417 63.1337141,5.70241477 62.9182785,5.46377841 C62.7028429,5.22514205 62.3995758,5.10582386 62.0084773,5.10582386 C61.753269,5.10582386 61.5287188,5.16133996 61.3348268,5.27237216 C61.1409347,5.38340436 60.9901298,5.54166667 60.882412,5.74715909 C60.7746942,5.95265152 60.7191781,6.20123106 60.7158637,6.49289773 Z" id="Path"></path>
                    <path d="M73.9290785,0.666193182 L76.3552149,0.666193182 L76.3552149,7.70596591 C76.3519005,8.3655303 76.1944668,8.94140625 75.8829138,9.43359375 C75.5713607,9.92578125 75.1413181,10.3077652 74.5927859,10.5795455 C74.0442537,10.8513258 73.4103759,10.9872159 72.6911524,10.9872159 C72.0547888,10.9872159 71.4772556,10.8761837 70.958553,10.6541193 C70.4398503,10.4320549 70.0272083,10.087358 69.7206268,9.62002841 C69.4140454,9.15269886 69.2624119,8.55445076 69.2656731,7.82528409 L71.7167206,7.82528409 C71.7266638,8.08712121 71.7772083,8.3100142 71.8683541,8.49396307 C71.9594999,8.67791193 72.0862755,8.81628788 72.2486808,8.90909091 C72.4110861,9.00189394 72.6049782,9.04829545 72.8303569,9.04829545 C73.0656789,9.04829545 73.2645426,8.99775095 73.4269479,8.89666193 C73.5893532,8.79557292 73.7128143,8.64559659 73.7973314,8.44673295 C73.8818484,8.24786932 73.9257641,8.00094697 73.9290785,7.70596591 L73.9290785,0.666193182 Z" id="Path"></path>
                    <path d="M81.2630196,10.9921875 C80.4609363,10.9921875 79.772371,10.8272964 79.1973236,10.4975142 C78.6222763,10.167732 78.1798047,9.70703125 77.8699088,9.11541193 C77.560013,8.52379261 77.4050651,7.83688447 77.4050651,7.0546875 C77.4050651,6.26917614 77.560013,5.5806108 77.8699088,4.98899148 C78.1798047,4.39737216 78.6222763,3.9366714 79.1973236,3.6068892 C79.772371,3.27710701 80.4609363,3.11221591 81.2630196,3.11221591 C82.065103,3.11221591 82.7536683,3.27710701 83.3287157,3.6068892 C83.903763,3.9366714 84.3462346,4.39737216 84.6561304,4.98899148 C84.9660263,5.5806108 85.1209742,6.26917614 85.1209742,7.0546875 C85.1209742,7.83688447 84.9660263,8.52379261 84.6561304,9.11541193 C84.3462346,9.70703125 83.903763,10.167732 83.3287157,10.4975142 C82.7536683,10.8272964 82.065103,10.9921875 81.2630196,10.9921875 Z M81.2779344,9.15767045 C81.5696011,9.15767045 81.8165234,9.06818182 82.0187014,8.88920455 C82.2208795,8.71022727 82.3758274,8.46164773 82.4835452,8.14346591 C82.591263,7.82528409 82.6451219,7.45738636 82.6451219,7.03977273 C82.6451219,6.6155303 82.591263,6.24431818 82.4835452,5.92613636 C82.3758274,5.60795455 82.2208795,5.359375 82.0187014,5.18039773 C81.8165234,5.00142045 81.5696011,4.91193182 81.2779344,4.91193182 C80.9763246,4.91193182 80.7219448,5.00142045 80.5147952,5.18039773 C80.3076456,5.359375 80.1502119,5.60795455 80.0424941,5.92613636 C79.9347763,6.24431818 79.8809174,6.6155303 79.8809174,7.03977273 C79.8809174,7.45738636 79.9347763,7.82528409 80.0424941,8.14346591 C80.1502119,8.46164773 80.3076456,8.71022727 80.5147952,8.88920455 C80.7219448,9.06818182 80.9763246,9.15767045 81.2779344,9.15767045 Z" id="Shape"></path>
                    <path d="M86.1688386,10.8480114 L86.1688386,0.666193182 L88.5999466,0.666193182 L88.5999466,4.51917614 L88.6496625,4.51917614 C88.7490943,4.28716856 88.8907847,4.06344697 89.0747335,3.84801136 C89.2586824,3.63257576 89.4940044,3.45608428 89.7806994,3.31853693 C90.0673945,3.18098958 90.4112629,3.11221591 90.8123045,3.11221591 C91.3426076,3.11221591 91.8389381,3.25142045 92.301296,3.52982955 C92.763654,3.80823864 93.1373519,4.23745265 93.4223898,4.81747159 C93.7074277,5.39749053 93.8499466,6.13660038 93.8499466,7.03480114 C93.8499466,7.89985795 93.7132278,8.62405303 93.4397903,9.20738636 C93.1663528,9.7907197 92.7984551,10.2282197 92.3360972,10.5198864 C91.8737392,10.811553 91.3608367,10.9573864 90.7973898,10.9573864 C90.4129201,10.9573864 90.0798235,10.8944129 89.7981,10.7684659 C89.5163765,10.6425189 89.280226,10.4767992 89.0896483,10.2713068 C88.8990706,10.0658144 88.7524087,9.8454072 88.6496625,9.61008523 L88.5750886,9.61008523 L88.5750886,10.8480114 L86.1688386,10.8480114 Z M88.5502307,7.02982955 C88.5502307,7.44081439 88.6057468,7.79876894 88.716779,8.10369318 C88.8278112,8.40861742 88.9885593,8.64476799 89.1990233,8.81214489 C89.4094873,8.97952178 89.6622099,9.06321023 89.9571909,9.06321023 C90.2554864,9.06321023 90.5090375,8.97952178 90.7178443,8.81214489 C90.9266511,8.64476799 91.0849135,8.40861742 91.1926313,8.10369318 C91.3003491,7.79876894 91.354208,7.44081439 91.354208,7.02982955 C91.354208,6.6188447 91.3003491,6.26254735 91.1926313,5.9609375 C91.0849135,5.65932765 90.9274797,5.42566288 90.7203301,5.25994318 C90.5131805,5.09422348 90.2588008,5.01136364 89.9571909,5.01136364 C89.6588955,5.01136364 89.4053443,5.09256629 89.1965375,5.25497159 C88.9877307,5.41737689 88.8278112,5.64938447 88.716779,5.95099432 C88.6057468,6.25260417 88.5502307,6.61221591 88.5502307,7.02982955 Z" id="Shape"></path>
                    <path d="M94.92963,10.8480114 L94.92963,0.666193182 L97.3607379,0.666193182 L97.3607379,4.51917614 L97.4104538,4.51917614 C97.5098856,4.28716856 97.651576,4.06344697 97.8355249,3.84801136 C98.0194737,3.63257576 98.2547957,3.45608428 98.5414908,3.31853693 C98.8281858,3.18098958 99.1720542,3.11221591 99.5730959,3.11221591 C100.103399,3.11221591 100.599729,3.25142045 101.062087,3.52982955 C101.524445,3.80823864 101.898143,4.23745265 102.183181,4.81747159 C102.468219,5.39749053 102.610738,6.13660038 102.610738,7.03480114 C102.610738,7.89985795 102.474019,8.62405303 102.200582,9.20738636 C101.927144,9.7907197 101.559246,10.2282197 101.096888,10.5198864 C100.634531,10.811553 100.121628,10.9573864 99.5581811,10.9573864 C99.1737114,10.9573864 98.8406148,10.8944129 98.5588913,10.7684659 C98.2771678,10.6425189 98.0410173,10.4767992 97.8504396,10.2713068 C97.659862,10.0658144 97.5132,9.8454072 97.4104538,9.61008523 L97.33588,9.61008523 L97.33588,10.8480114 L94.92963,10.8480114 Z M97.311022,7.02982955 C97.311022,7.44081439 97.3665381,7.79876894 97.4775703,8.10369318 C97.5886025,8.40861742 97.7493506,8.64476799 97.9598146,8.81214489 C98.1702786,8.97952178 98.4230012,9.06321023 98.7179822,9.06321023 C99.0162777,9.06321023 99.2698288,8.97952178 99.4786356,8.81214489 C99.6874425,8.64476799 99.8457048,8.40861742 99.9534226,8.10369318 C100.06114,7.79876894 100.114999,7.44081439 100.114999,7.02982955 C100.114999,6.6188447 100.06114,6.26254735 99.9534226,5.9609375 C99.8457048,5.65932765 99.6882711,5.42566288 99.4811214,5.25994318 C99.2739718,5.09422348 99.0195921,5.01136364 98.7179822,5.01136364 C98.4196868,5.01136364 98.1661356,5.09256629 97.9573288,5.25497159 C97.748522,5.41737689 97.5886025,5.64938447 97.4775703,5.95099432 C97.3665381,6.25260417 97.311022,6.61221591 97.311022,7.02982955 Z" id="Shape"></path>
                    <path d="M107.260024,10.9921875 C106.461255,10.9921875 105.772689,10.8339252 105.194328,10.5174006 C104.615966,10.2008759 104.171837,9.74846117 103.861941,9.16015625 C103.552045,8.57185133 103.397097,7.87168561 103.397097,7.05965909 C103.397097,6.27083333 103.552874,5.5806108 103.864427,4.98899148 C104.17598,4.39737216 104.615137,3.9366714 105.181899,3.6068892 C105.74866,3.27710701 106.41651,3.11221591 107.18545,3.11221591 C107.72901,3.11221591 108.226169,3.19673295 108.676927,3.36576705 C109.127685,3.53480114 109.517126,3.78503788 109.845251,4.11647727 C110.173376,4.44791667 110.428584,4.85641572 110.610876,5.34197443 C110.793168,5.82753314 110.884313,6.38352273 110.884313,7.00994318 L110.884313,7.61647727 L104.247239,7.61647727 L104.247239,6.20454545 L108.622239,6.20454545 C108.618925,5.94602273 108.557609,5.71567235 108.438291,5.51349432 C108.318972,5.31131629 108.155739,5.15305398 107.948589,5.03870739 C107.741439,4.9243608 107.503632,4.8671875 107.235166,4.8671875 C106.963385,4.8671875 106.719777,4.92767519 106.504342,5.04865057 C106.288906,5.16962595 106.118215,5.33368845 105.992268,5.54083807 C105.866321,5.74798769 105.800033,5.98248106 105.793404,6.24431818 L105.793404,7.68110795 C105.793404,7.99266098 105.854721,8.26526989 105.977353,8.49893466 C106.099986,8.73259943 106.273991,8.9140625 106.49937,9.04332386 C106.724749,9.17258523 106.993215,9.23721591 107.304768,9.23721591 C107.520203,9.23721591 107.715753,9.20738636 107.891416,9.14772727 C108.067078,9.08806818 108.217883,9.00023674 108.34383,8.88423295 C108.469777,8.76822917 108.564238,8.62571023 108.627211,8.45667614 L110.859455,8.52130682 C110.766652,9.0217803 110.563646,9.45679451 110.250435,9.82634943 C109.937225,10.1959044 109.527069,10.4825994 109.019967,10.6864347 C108.512864,10.8902699 107.926217,10.9921875 107.260024,10.9921875 Z" id="Path"></path>
                    <path d="M111.93019,10.8480114 L111.93019,3.21164773 L114.291695,3.21164773 L114.291695,4.60369318 L114.371241,4.60369318 C114.510445,4.0999053 114.737481,3.72455019 115.052349,3.47762784 C115.367216,3.23070549 115.733457,3.10724432 116.15107,3.10724432 C116.26376,3.10724432 116.379764,3.1147017 116.499082,3.12961648 C116.6184,3.14453125 116.729432,3.16690341 116.832178,3.19673295 L116.832178,5.30965909 C116.716175,5.26988636 116.564541,5.23839962 116.377278,5.21519886 C116.190014,5.19199811 116.023466,5.18039773 115.877633,5.18039773 C115.589281,5.18039773 115.329929,5.24419981 115.099579,5.37180398 C114.869228,5.49940814 114.688594,5.67672822 114.557675,5.9037642 C114.426757,6.13080019 114.361298,6.3967803 114.361298,6.70170455 L114.361298,10.8480114 L111.93019,10.8480114 Z" id="Path"></path>
                </g>
                <g id="􀖋">
                    <path d="M8.63964844,17.2705078 C13.3681641,17.2705078 17.2792969,13.3681641 17.2792969,8.63964844 C17.2792969,3.90234375 13.359375,0 8.63085938,0 C3.90234375,0 0,3.90234375 0,8.63964844 C0,13.3681641 3.91113281,17.2705078 8.63964844,17.2705078 Z M8.65722656,3.9375 C11.0214844,3.9375 12.9023438,5.51953125 13.3154297,7.79589844 L14.0888672,7.79589844 C14.5283203,7.79589844 14.6425781,8.21777344 14.3876953,8.56054688 L13.0341797,10.4326172 C12.7705078,10.7841797 12.3486328,10.7666016 12.1025391,10.4326172 L10.7226562,8.56054688 C10.4765625,8.21777344 10.5908203,7.79589844 11.0302734,7.79589844 L11.8476562,7.79589844 C11.4697266,6.43359375 10.1953125,5.43164062 8.65722656,5.43164062 C7.92773438,5.43164062 7.37402344,5.65136719 6.81152344,6.07324219 C6.3984375,6.35449219 5.98535156,6.31933594 5.6953125,5.9765625 C5.4140625,5.63378906 5.50195313,5.15917969 5.95019531,4.82519531 C6.65332031,4.27148438 7.62890625,3.9375 8.65722656,3.9375 Z M8.67480469,13.3066406 C6.30175781,13.3066406 4.4296875,11.7333984 4.0078125,9.45703125 L3.19921875,9.45703125 C2.76855469,9.45703125 2.65429688,9.02636719 2.90039062,8.69238281 L4.26269531,6.81152344 C4.51757812,6.46875 4.93945312,6.48632812 5.18554688,6.81152344 L6.56542969,8.69238281 C6.81152344,9.02636719 6.69726562,9.45703125 6.26660156,9.45703125 L5.484375,9.45703125 C5.86230469,10.8105469 7.13671875,11.8125 8.67480469,11.8125 C9.39550781,11.8125 9.95800781,11.5927734 10.5205078,11.1796875 C10.9248047,10.8984375 11.3466797,10.9248047 11.6279297,11.2763672 C11.9179688,11.6103516 11.8212891,12.0849609 11.3730469,12.4189453 C10.6787109,12.9726562 9.69433594,13.3066406 8.67480469,13.3066406 Z" id="Shape"></path>
                </g>
            </g>
        </g>
    </g>
</svg>