<?xml version="1.0" encoding="UTF-8"?>
<svg width="28px" height="28px" viewBox="0 0 28 28" version="1.1" xmlns="http://www.w3.org/2000/svg" xmlns:xlink="http://www.w3.org/1999/xlink">
    <title>CheckCircle</title>
    <g id="CheckCircle" stroke="none" stroke-width="1" fill="none" fill-rule="evenodd">
        <path d="M14,28 C21.7346535,28 28,21.7207921 28,14 C28,6.26534653 21.7346535,0 14,0 C6.27920792,0 0,6.26534653 0,14 C0,21.7207921 6.27920792,28 14,28 Z M12.5584158,20.639604 C11.9346535,20.639604 11.4356436,20.3485149 11.0059406,19.8217822 L7.98415842,16.2594059 C7.65148515,15.8712871 7.52673267,15.5247525 7.52673267,15.1089109 C7.52673267,14.2356436 8.24752475,13.5425743 9.12079208,13.5425743 C9.61980198,13.5425743 10.0079208,13.750495 10.3683168,14.1663366 L12.5445545,16.7861386 L17.4930693,8.94059406 C17.8673267,8.34455446 18.3247525,8.03960396 18.8930693,8.03960396 C19.7524752,8.03960396 20.5148515,8.66336634 20.5148515,9.55049505 C20.5148515,9.88316832 20.390099,10.2574257 20.1405941,10.6178218 L14.0831683,19.7940594 C13.7089109,20.3207921 13.1683168,20.639604 12.5584158,20.639604 Z" id="Shape" fill="#5E5C5C" fill-rule="nonzero"></path>
    </g>
</svg>