<?xml version="1.0" encoding="UTF-8"?>
<svg width="40px" height="40px" viewBox="0 0 40 40" version="1.1" xmlns="http://www.w3.org/2000/svg" xmlns:xlink="http://www.w3.org/1999/xlink">
    <title>CircleCheck</title>
    <g id="CircleCheck" stroke="none" stroke-width="1" fill="none" fill-rule="evenodd">
        <path d="M20.5,36.015625 C29.5,36.015625 36.796875,28.703125 36.796875,19.71875 C36.796875,10.71875 29.5,3.421875 20.5,3.421875 C11.515625,3.421875 4.203125,10.71875 4.203125,19.71875 C4.203125,28.703125 11.515625,36.015625 20.5,36.015625 Z M18.765625,27.484375 C18.125,27.484375 17.625,27.203125 17.15625,26.625 L13.390625,22.09375 C13.078125,21.703125 12.9375,21.328125 12.9375,20.90625 C12.9375,20.03125 13.625,19.328125 14.5,19.328125 C15.015625,19.328125 15.421875,19.53125 15.828125,20.03125 L18.71875,23.65625 L25.015625,13.59375 C25.390625,13.015625 25.859375,12.703125 26.40625,12.703125 C27.25,12.703125 28.03125,13.3125 28.03125,14.1875 C28.03125,14.5625 27.84375,14.984375 27.609375,15.34375 L20.3125,26.609375 C19.9375,27.171875 19.390625,27.484375 18.765625,27.484375 Z" id="Shape" fill="#5E5C5C" fill-rule="nonzero"></path>
    </g>
</svg>