<?xml version="1.0" encoding="UTF-8"?>
<svg width="40px" height="40px" viewBox="0 0 40 40" version="1.1" xmlns="http://www.w3.org/2000/svg" xmlns:xlink="http://www.w3.org/1999/xlink">
    <title>CirclePlus</title>
    <g id="CirclePlus" stroke="none" stroke-width="1" fill="none" fill-rule="evenodd">
        <path d="M20.5,36.015625 C29.5,36.015625 36.796875,28.703125 36.796875,19.71875 C36.796875,10.71875 29.5,3.421875 20.5,3.421875 C11.515625,3.421875 4.203125,10.71875 4.203125,19.71875 C4.203125,28.703125 11.515625,36.015625 20.5,36.015625 Z M20.484375,27.25 C19.53125,27.25 18.84375,26.546875 18.84375,25.59375 L18.84375,21.375 L14.625,21.375 C13.65625,21.375 12.96875,20.671875 12.96875,19.71875 C12.96875,18.734375 13.65625,18.03125 14.625,18.03125 L18.84375,18.03125 L18.84375,13.828125 C18.84375,12.859375 19.53125,12.15625 20.484375,12.15625 C21.46875,12.15625 22.171875,12.859375 22.171875,13.828125 L22.171875,18.03125 L26.390625,18.03125 C27.34375,18.03125 28.046875,18.734375 28.046875,19.71875 C28.046875,20.671875 27.34375,21.375 26.390625,21.375 L22.171875,21.375 L22.171875,25.59375 C22.171875,26.546875 21.46875,27.25 20.484375,27.25 Z" id="Shape" fill="#5E5C5C" fill-rule="nonzero"></path>
    </g>
</svg>