<svg width="22px" height="22px" viewBox="0 0 22 22" version="1.1" xmlns="http://www.w3.org/2000/svg" xmlns:xlink="http://www.w3.org/1999/xlink">
    <g id="ScheduelPad" stroke="none" stroke-width="1" fill="none" fill-rule="evenodd">
        <g id="JobVisit-InfoModal" transform="translate(-18.815430, -17.824219)" fill="#BDBDBD" fill-rule="nonzero">
            <path d="M29.8154297,39.8242188 C35.8599841,39.8242188 40.8154297,34.8578821 40.8154297,28.8242188 C40.8154297,22.7796643 35.8599841,17.8242188 29.8154297,17.8242188 C23.7708752,17.8242188 18.8154297,22.7796643 18.8154297,28.8242188 C18.8154297,34.8578821 23.7708752,39.8242188 29.8154297,39.8242188 Z M26.6461228,33.2677831 C25.9164198,33.2677831 25.3609742,32.7014465 25.3609742,31.9717435 C25.3609742,31.6559019 25.5025584,31.3291692 25.7530534,31.0895653 L27.9966178,28.8351098 L25.7530534,26.5806544 C25.5025584,26.3410504 25.3609742,26.0143178 25.3609742,25.6984762 C25.3609742,24.9578821 25.9164198,24.4024366 26.6461228,24.4024366 C27.038202,24.4024366 27.3322614,24.5331296 27.5827564,24.7836247 L29.8154297,27.0054069 L32.0698851,24.7727336 C32.3312713,24.5222386 32.6253307,24.4024366 33.0065188,24.4024366 C33.7362218,24.4024366 34.2916673,24.9578821 34.2916673,25.6875851 C34.2916673,26.0143178 34.1609742,26.3301593 33.8995881,26.5697633 L31.6560237,28.8351098 L33.8995881,31.0895653 C34.1500832,31.3291692 34.2807762,31.6450108 34.2807762,31.9717435 C34.2807762,32.7014465 33.7253307,33.2677831 33.0065188,33.2677831 C32.6144396,33.2677831 32.298598,33.1479811 32.048103,32.886595 L29.8154297,30.6757039 L27.6045386,32.886595 C27.3431525,33.1479811 27.038202,33.2677831 26.6461228,33.2677831 Z" id="Shape"></path>
        </g>
    </g>
</svg>