<?xml version="1.0" encoding="UTF-8"?>
<svg width="44px" height="40px" viewBox="0 0 44 40" version="1.1" xmlns="http://www.w3.org/2000/svg" xmlns:xlink="http://www.w3.org/1999/xlink">
    <title>People</title>
    <g id="People" stroke="none" stroke-width="1" fill="none" fill-rule="evenodd">
        <path d="M30.203125,19.3125 C33.65625,19.3125 36.546875,16.25 36.546875,12.328125 C36.546875,8.515625 33.640625,5.53125 30.203125,5.53125 C26.765625,5.53125 23.875,8.5625 23.875,12.359375 C23.875,16.25 26.75,19.3125 30.203125,19.3125 Z M12.09375,19.65625 C15.09375,19.65625 17.625,16.984375 17.625,13.59375 C17.625,10.25 15.078125,7.671875 12.09375,7.671875 C9.109375,7.671875 6.578125,10.296875 6.578125,13.609375 C6.578125,16.984375 9.09375,19.65625 12.09375,19.65625 Z M3.546875,33.890625 L15.140625,33.890625 C13.453125,31.484375 15.171875,26.78125 18.796875,23.90625 C17.09375,22.828125 14.84375,22.03125 12.09375,22.03125 C5.15625,22.03125 0.5625,27.140625 0.5625,31.3125 C0.5625,32.953125 1.359375,33.890625 3.546875,33.890625 Z M20.515625,33.890625 L39.890625,33.890625 C42.53125,33.890625 43.4375,33.0625 43.4375,31.578125 C43.4375,27.5625 38.296875,22.0625 30.203125,22.0625 C22.09375,22.0625 16.96875,27.5625 16.96875,31.578125 C16.96875,33.0625 17.859375,33.890625 20.515625,33.890625 Z" id="Shape" fill="#5E5C5C" fill-rule="nonzero"></path>
    </g>
</svg>