<?xml version="1.0" encoding="UTF-8"?>
<svg width="40px" height="36px" viewBox="0 0 40 36" version="1.1" xmlns="http://www.w3.org/2000/svg" xmlns:xlink="http://www.w3.org/1999/xlink">
    <title>PersonCheck</title>
    <g id="PersonCheck" stroke="none" stroke-width="1" fill="none" fill-rule="evenodd">
        <path d="M21.0068359,32.1015625 C28.3623047,32.1015625 34.4326172,26.03125 34.4326172,18.6757812 C34.4326172,11.3066406 28.3486328,5.23632812 20.9931641,5.23632812 C14.1845703,5.23632812 8.48339844,10.4316406 7.66308594,17.0898438 C8.26464844,16.953125 8.87988281,16.8710938 9.52246094,16.8710938 C13.5419922,16.8710938 16.9326172,19.7011719 17.8212891,23.3652344 C18.7919922,23.1328125 19.8310547,22.9960938 20.9931641,22.9960938 C24.6162109,22.9960938 27.4189453,24.3222656 28.8134766,25.8671875 C26.8994141,27.9726562 24.0419922,29.2988281 20.9931641,29.2988281 C19.8037109,29.2988281 18.5185547,29.0664062 17.3974609,28.6425781 C17.1650391,29.3945312 16.6044922,30.296875 15.9072266,31.0761719 C17.4931641,31.7460938 19.2021484,32.1015625 21.0068359,32.1015625 Z M20.9931641,20.7402344 C18.4775391,20.7265625 16.5361328,18.6210938 16.5223906,15.8457031 C16.5087891,13.234375 18.4912109,11.046875 20.9931641,11.046875 C23.4814453,11.046875 25.4501953,13.234375 25.4501953,15.8457031 C25.4501953,18.6210938 23.4951172,20.7675781 20.9931641,20.7402344 Z M9.52246094,32.1289062 C13.1728516,32.1289062 16.2216797,29.09375 16.2216797,25.4296875 C16.2216797,21.765625 13.2001953,18.7441406 9.52246094,18.7441406 C5.85839844,18.7441406 2.83691406,21.765625 2.83691406,25.4296875 C2.83691406,29.1074219 5.85839844,32.1289062 9.52246094,32.1289062 Z M8.66113281,29.0664062 C8.38769531,29.0664062 8.08691406,28.9707031 7.88183594,28.7519531 L5.72167969,26.4003906 C5.54394531,26.2089844 5.44824219,25.9492188 5.44824219,25.703125 C5.44824219,25.1152344 5.89941406,24.7324219 6.41894531,24.7324219 C6.71972656,24.7324219 6.96582031,24.8554688 7.12988281,25.046875 L8.59277344,26.6464844 L11.6005859,22.4902344 C11.7919922,22.2304688 12.0791016,22.0664062 12.4208984,22.0664062 C12.9404297,22.0664062 13.3916016,22.4765625 13.3916016,23.0234375 C13.3916016,23.1875 13.3232422,23.40625 13.1865234,23.5839844 L9.45410156,28.7109375 C9.29003906,28.9296875 8.98925781,29.0664062 8.66113281,29.0664062 Z" id="Shape" fill="#5E5C5C" fill-rule="nonzero"></path>
    </g>
</svg>