<?xml version="1.0" encoding="UTF-8"?>
<svg width="40px" height="40px" viewBox="0 0 40 40" version="1.1" xmlns="http://www.w3.org/2000/svg" xmlns:xlink="http://www.w3.org/1999/xlink">
    <title>PersonCheck</title>
    <g id="PersonCheck" stroke="none" stroke-width="1" fill="none" fill-rule="evenodd">
        <path d="M22.0078125,36.03125 C30.9296875,36.03125 38.3046875,28.65625 38.3046875,19.734375 C38.3046875,10.796875 30.9296875,3.4375 21.9921875,3.4375 C13.7421875,3.4375 6.8359375,9.703125 5.8359375,17.78125 C6.5703125,17.609375 7.3515625,17.515625 8.1484375,17.515625 C13.0078125,17.515625 17.1171875,20.921875 18.2109375,25.359375 C19.3671875,25.09375 20.6015625,24.9375 21.9921875,24.9375 C26.2890625,24.9375 29.6328125,26.5 31.3359375,28.375 C29.0546875,30.890625 25.6328125,32.46875 21.9921875,32.46875 C20.6015625,32.46875 19.0703125,32.203125 17.7421875,31.703125 C17.4453125,32.6875 16.7421875,33.828125 15.8671875,34.796875 C17.7734375,35.59375 19.8359375,36.03125 22.0078125,36.03125 Z M21.9921875,22.1875 C18.9453125,22.171875 16.6015625,19.625 16.5858618,16.28125 C16.5703125,13.125 18.9765625,10.46875 21.9921875,10.46875 C25.0078125,10.46875 27.3828125,13.125 27.3828125,16.28125 C27.3828125,19.625 25.0234375,22.21875 21.9921875,22.1875 Z M8.1484375,36.03125 C12.5703125,36.03125 16.2734375,32.328125 16.2734375,27.890625 C16.2734375,23.453125 12.6015625,19.78125 8.1484375,19.78125 C3.6953125,19.78125 0.0234375,23.453125 0.0234375,27.890625 C0.0234375,32.359375 3.6953125,36.03125 8.1484375,36.03125 Z M7.1015625,32.3125 C6.7734375,32.3125 6.3828125,32.203125 6.1328125,31.9375 L3.5234375,29.09375 C3.3046875,28.859375 3.1640625,28.53125 3.1640625,28.21875 C3.1640625,27.46875 3.7421875,27.015625 4.3828125,27.015625 C4.7734375,27.015625 5.0703125,27.15625 5.2890625,27.390625 L7.0078125,29.3125 L10.6015625,24.328125 C10.8359375,24 11.2109375,23.796875 11.6328125,23.796875 C12.2890625,23.796875 12.8515625,24.328125 12.8515625,25 C12.8515625,25.21875 12.7734375,25.484375 12.6015625,25.703125 L8.0859375,31.875 C7.8828125,32.140625 7.5078125,32.3125 7.1015625,32.3125 Z" id="Shape" fill="#5E5C5C" fill-rule="nonzero"></path>
    </g>
</svg>