<?xml version="1.0" encoding="UTF-8"?>
<svg width="28px" height="28px" viewBox="0 0 28 28" version="1.1" xmlns="http://www.w3.org/2000/svg" xmlns:xlink="http://www.w3.org/1999/xlink">
    <title>PlusCircle</title>
    <g id="PlusCircle" stroke="none" stroke-width="1" fill="none" fill-rule="evenodd">
        <path d="M14,28 C21.7346535,28 28,21.7207921 28,14 C28,6.26534653 21.7346535,0 14,0 C6.27920792,0 0,6.26534653 0,14 C0,21.7207921 6.27920792,28 14,28 Z M7.56831683,14 C7.56831683,13.0435644 8.26138614,12.3227723 9.2039604,12.3227723 L12.3227723,12.3227723 L12.3227723,9.2039604 C12.3227723,8.26138614 13.0435644,7.55445545 14,7.55445545 C14.9564356,7.55445545 15.6772277,8.26138614 15.6772277,9.2039604 L15.6772277,12.3227723 L18.809901,12.3227723 C19.7386139,12.3227723 20.4455446,13.0435644 20.4455446,14 C20.4455446,14.9564356 19.7386139,15.6772277 18.809901,15.6772277 L15.6772277,15.6772277 L15.6772277,18.7960396 C15.6772277,19.7386139 14.9564356,20.4316832 14,20.4316832 C13.0435644,20.4316832 12.3227723,19.7386139 12.3227723,18.7960396 L12.3227723,15.6772277 L9.2039604,15.6772277 C8.26138614,15.6772277 7.56831683,14.9564356 7.56831683,14 Z" id="Shape" fill="#5E5C5C" fill-rule="nonzero"></path>
    </g>
</svg>