<svg width="11px" height="11px" viewBox="0 0 11 11" version="1.1" xmlns="http://www.w3.org/2000/svg" xmlns:xlink="http://www.w3.org/1999/xlink">
  <path d="M4.97561682,1.04876635 L4.97561682,2.22576145 L1.56341294,2.22576145 C1.35000026,2.22576145 1.1769951,2.39876661 1.1769951,2.6121793 L1.1769951,9.43658706 C1.1769951,9.64999974 1.35000026,9.8230049 1.56341294,9.8230049 L8.38782071,9.8230049 C8.60123339,9.8230049 8.77423855,9.64999974 8.77423855,9.43658706 L8.77423855,6.02438318 L9.95123365,6.02438318 L9.95123365,9.43658706 C9.95123365,10.3000362 9.25126983,11 8.38782071,11 L1.56341294,11 C0.699963817,11 0,10.3000362 0,9.43658706 L0,2.6121793 C0,1.74873017 0.699963817,1.04876635 1.56341294,1.04876635 L4.97561682,1.04876635 Z" id="Path"></path>
  <path d="M8.20501569,0.479543474 C8.84440703,-0.159847834 9.88106518,-0.159847823 10.5204565,0.479543499 C11.1598478,1.11893482 11.1598478,2.15559297 10.5204565,2.79498432 L5.88960839,7.42583244 C5.81230171,7.50313913 5.71543833,7.55798224 5.60937443,7.58449822 L3.65954364,8.07195591 C3.21776443,8.18240072 2.81759928,7.78223557 2.92804409,7.34045636 L3.41550178,5.39062557 C3.44201776,5.28456168 3.49686088,5.18769829 3.57416756,5.11039161 L8.20501569,0.479543474 Z M9.66738876,1.33261124 C9.49913374,1.16435622 9.22633844,1.16435622 9.05808342,1.33261124 L4.5450761,5.84476148 L4.34204445,6.6568881 L5.15515189,6.45385644 L9.66738876,1.94191658 C9.81461191,1.79469344 9.8330148,1.56743165 9.72259744,1.40019884 L9.66738876,1.33261124 Z" id="Path"></path>
</svg>