<?xml version="1.0" encoding="UTF-8"?>
<svg width="25px" height="22px" viewBox="0 0 25 22" version="1.1" xmlns="http://www.w3.org/2000/svg" xmlns:xlink="http://www.w3.org/1999/xlink">
    <title>repeat</title>
    <g id="repeat" stroke="none" stroke-width="1" fill="none" fill-rule="evenodd">
        <path d="M2.94824219,11.6909485 C2.56606038,11.6909485 2.23980204,11.555781 1.96946716,11.2854462 C1.69913228,11.0151113 1.56396484,10.6876831 1.56396484,10.3031616 L1.56396484,9.24710083 C1.56396484,8.22333781 1.79605103,7.34099833 2.26022339,6.6000824 C2.72439575,5.85916646 3.38642375,5.29105632 4.24630737,4.89575195 C5.106191,4.50044759 6.12827555,4.30279541 7.31256104,4.30279541 L14.157196,4.30279541 L14.157196,2.39544678 C14.157196,2.08203125 14.2473755,1.83466085 14.4277344,1.65333557 C14.6080933,1.47201029 14.8519287,1.38134766 15.1592407,1.38134766 C15.3073527,1.38134766 15.4400787,1.40446472 15.5574188,1.45069885 C15.6747589,1.49693298 15.781901,1.55875651 15.8788452,1.63616943 L19.8476562,4.99371338 C20.0800985,5.19156901 20.1957347,5.4306488 20.1945736,5.71095276 C20.193395,5.99125671 20.0777588,6.22921753 19.8476562,6.42483521 L15.8788452,9.78512573 C15.781901,9.86487834 15.6747589,9.9278717 15.5574188,9.97410583 C15.4400787,10.02034 15.3073527,10.043457 15.1592407,10.043457 C14.8519287,10.043457 14.6080933,9.95279439 14.4277344,9.77146912 C14.2473755,9.59014384 14.157196,9.3416036 14.157196,9.02584839 L14.157196,6.99749756 L7.18499756,6.99749756 C6.2943929,6.99749756 5.59477743,7.23090617 5.08615112,7.69772339 C4.57752482,8.16454061 4.32321167,8.80678304 4.32321167,9.62445068 L4.32321167,10.3031616 C4.32321167,10.6876831 4.19015503,11.0151113 3.92404175,11.2854462 C3.65792847,11.555781 3.33266195,11.6909485 2.94824219,11.6909485 Z M22.0482788,10.2241211 C22.4328003,10.2241211 22.7596436,10.3592885 23.0288086,10.6296234 C23.2979736,10.8999583 23.4325562,11.2262166 23.4325562,11.6083984 L23.4325562,12.6582031 C23.4325562,13.6862386 23.2010295,14.5696208 22.7379761,15.3083496 C22.2749227,16.0470785 21.6128947,16.6151886 20.7518921,17.0126801 C19.8908895,17.4101715 18.8682963,17.6089172 17.6841125,17.6089172 L10.8428345,17.6089172 L10.8428345,19.4974976 C10.8428345,19.8132528 10.752655,20.0622762 10.5722961,20.2445679 C10.3919373,20.4268595 10.1481018,20.5180054 9.84078979,20.5180054 C9.69267782,20.5180054 9.55939229,20.4938456 9.44093323,20.4455261 C9.32247416,20.3972066 9.21584066,20.3342896 9.12103271,20.2567749 L5.14886475,16.8993835 C4.91652425,16.7080383 4.80091349,16.4722137 4.80202443,16.1919098 C4.80315145,15.9116058 4.91876221,15.6703898 5.14886475,15.4682617 L9.12103271,12.1142273 C9.21584066,12.0344747 9.32247416,11.9704386 9.44093323,11.9221191 C9.55939229,11.8737996 9.69267782,11.8496399 9.84078979,11.8496399 C10.1481018,11.8496399 10.3919373,11.9403025 10.5722961,12.1216278 C10.752655,12.3029531 10.8428345,12.5535787 10.8428345,12.8735046 L10.8428345,14.9140625 L17.8148804,14.9140625 C18.7032471,14.9140625 19.4023285,14.6806539 19.9121246,14.2138367 C20.4219208,13.7470194 20.6768188,13.1038106 20.6768188,12.2842102 L20.6768188,11.6083984 C20.6768188,11.2262166 20.8098755,10.8999583 21.0759888,10.6296234 C21.3421021,10.3592885 21.6661987,10.2241211 22.0482788,10.2241211 Z" id="Shape" fill="#5E5C5C" fill-rule="nonzero"></path>
    </g>
</svg>