<svg width="10px" height="12px" viewBox="0 0 10 12" version="1.1" xmlns="http://www.w3.org/2000/svg" xmlns:xlink="http://www.w3.org/1999/xlink">
  <path d="M5.00290192,7.81267218 C5.29889727,7.81267218 5.54265815,7.58126722 5.54265815,7.30578512 L5.54265815,2.09917355 L5.49622751,1.32782369 L5.82124202,1.71349862 L6.56413233,2.46831956 C6.65699362,2.56749311 6.79048172,2.61707989 6.92396982,2.61707989 C7.18514219,2.61707989 7.39988392,2.43526171 7.39988392,2.18181818 C7.39988392,2.04958678 7.34764945,1.95041322 7.24898433,1.85674931 L5.41497388,0.17630854 C5.27568195,0.0495867769 5.14219385,0 5.00290192,0 C4.85780615,0 4.72431805,0.0495867769 4.58502612,0.17630854 L2.75101567,1.85674931 C2.65235055,1.95041322 2.60011608,2.04958678 2.60011608,2.18181818 C2.60011608,2.43526171 2.80905398,2.61707989 3.07022635,2.61707989 C3.20371445,2.61707989 3.34300638,2.56749311 3.43586767,2.46831956 L4.17875798,1.71349862 L4.50377249,1.32782369 L4.46314568,2.09917355 L4.46314568,7.30578512 C4.46314568,7.58126722 4.70110273,7.81267218 5.00290192,7.81267218 Z M1.83401045,12 L8.16598955,12 C9.36738247,12 10,11.399449 10,10.2699725 L10,5.17355372 C10,4.04407713 9.36738247,3.44903581 8.16598955,3.44903581 L6.59895531,3.44903581 L6.59895531,4.55096419 L8.0789321,4.55096419 C8.56645386,4.55096419 8.83923389,4.78787879 8.83923389,5.27823691 L8.83923389,10.1652893 C8.83923389,10.6556474 8.56645386,10.892562 8.0789321,10.892562 L1.9210679,10.892562 C1.42774231,10.892562 1.16076611,10.6556474 1.16076611,10.1652893 L1.16076611,5.27823691 C1.16076611,4.78787879 1.42774231,4.55096419 1.9210679,4.55096419 L3.40104469,4.55096419 L3.40104469,3.44903581 L1.83401045,3.44903581 C0.638421358,3.44903581 0,4.04407713 0,5.17355372 L0,10.2699725 C0,11.4049587 0.638421358,12 1.83401045,12 Z"></path>
</svg>