<?xml version="1.0" encoding="UTF-8"?>
<svg width="40px" height="40px" viewBox="0 0 40 40" version="1.1" xmlns="http://www.w3.org/2000/svg" xmlns:xlink="http://www.w3.org/1999/xlink">
    <title>SidebarClosed</title>
    <g id="SidebarClosed" stroke="none" stroke-width="1" fill="none" fill-rule="evenodd">
        <path d="M8.2734375,34.46875 L31.9921875,34.46875 C36.1328125,34.46875 38.5703125,31.9375 38.5703125,27.625 L38.5703125,11.84375 C38.5703125,7.53125 36.1328125,5 31.9921875,5 L8.2734375,5 C3.9609375,5 1.4296875,7.53125 1.4296875,11.84375 L1.4296875,27.625 C1.4296875,31.9375 3.9609375,34.46875 8.2734375,34.46875 Z M8.5546875,30.984375 C6.2578125,30.984375 4.9140625,29.640625 4.9140625,27.34375 L4.9140625,12.125 C4.9140625,9.828125 6.2578125,8.484375 8.5546875,8.484375 L14.2421875,8.484375 L14.2421875,30.984375 L8.5546875,30.984375 Z M31.4453125,8.484375 C33.7421875,8.484375 35.0859375,9.828125 35.0859375,12.125 L35.0859375,27.34375 C35.0859375,29.640625 33.7421875,30.984375 31.4453125,30.984375 L17.4921875,30.984375 L17.4921875,8.484375 L31.4453125,8.484375 Z M11.1328125,14.15625 C11.7578125,14.15625 12.2578125,13.640625 12.2578125,13.0625 C12.2578125,12.484375 11.7578125,11.984375 11.1328125,11.984375 L8.0390625,11.984375 C7.4296875,11.984375 6.9140625,12.484375 6.9140625,13.0625 C6.9140625,13.640625 7.4296875,14.15625 8.0390625,14.15625 L11.1328125,14.15625 Z M11.1328125,18.4375 C11.7578125,18.4375 12.2578125,17.9375 12.2578125,17.34375 C12.2578125,16.765625 11.7578125,16.265625 11.1328125,16.265625 L8.0390625,16.265625 C7.4296875,16.265625 6.9140625,16.765625 6.9140625,17.34375 C6.9140625,17.9375 7.4296875,18.4375 8.0390625,18.4375 L11.1328125,18.4375 Z M11.1328125,22.71875 C11.7578125,22.71875 12.2578125,22.234375 12.2578125,21.640625 C12.2578125,21.0625 11.7578125,20.5625 11.1328125,20.5625 L8.0390625,20.5625 C7.4296875,20.5625 6.9140625,21.0625 6.9140625,21.640625 C6.9140625,22.234375 7.4296875,22.71875 8.0390625,22.71875 L11.1328125,22.71875 Z" id="Shape" fill="#5E5C5C" fill-rule="nonzero"></path>
    </g>
</svg>