<?xml version="1.0" encoding="UTF-8"?>
<svg width="22px" height="22px" viewBox="0 0 22 22" version="1.1" xmlns="http://www.w3.org/2000/svg" xmlns:xlink="http://www.w3.org/1999/xlink">
    <title>StatusConfirmedActive</title>
    <g id="StatusConfirmedActive" stroke="none" stroke-width="1" fill="none" fill-rule="evenodd">
        <g id="ô€£" fill="#0087FF" fill-rule="nonzero">
            <path d="M11,22 C17.0445545,22 22,17.0336634 22,11 C22,4.95544554 17.0445545,0 11,0 C4.95544554,0 0,4.95544554 0,11 C0,17.0336634 4.95544554,22 11,22 Z M9.86732673,16.2059406 C9.37722772,16.2059406 8.98514851,15.9772277 8.64752475,15.5633663 L6.27326733,12.7643564 C6.01188119,12.4594059 5.91386139,12.1871287 5.91386139,11.860396 C5.91386139,11.1742574 6.48019802,10.629703 7.16633663,10.629703 C7.55841584,10.629703 7.86336634,10.7930693 8.14653465,11.119802 L9.85643564,13.1782178 L13.7445545,7.01386139 C14.0386139,6.54554455 14.3980198,6.30594059 14.8445545,6.30594059 C15.519802,6.30594059 16.1188119,6.7960396 16.1188119,7.49306931 C16.1188119,7.75445545 16.0207921,8.04851485 15.8247525,8.33168317 L11.0653465,15.5415842 C10.7712871,15.9554455 10.3465347,16.2059406 9.86732673,16.2059406 Z" id="Shape"></path>
        </g>
    </g>
</svg>