<?xml version="1.0" encoding="UTF-8"?>
<svg width="22px" height="22px" viewBox="0 0 22 22" version="1.1" xmlns="http://www.w3.org/2000/svg" xmlns:xlink="http://www.w3.org/1999/xlink">
    <title>StatusConfirmed</title>
    <g id="StatusConfirmed" stroke="none" stroke-width="1" fill="none" fill-rule="evenodd">
        <g id="ô€¢" fill="#333333" fill-rule="nonzero">
            <path d="M11,22 C17.0445545,22 22,17.0336634 22,11 C22,4.95544554 17.0445545,0 11,0 C4.95544554,0 0,4.95544554 0,11 C0,17.0336634 4.95544554,22 11,22 Z M11,18.9831683 C6.57821782,18.9831683 3.01683168,15.4217822 3.01683168,11 C3.01683168,6.57821782 6.57821782,3.00594059 11,3.00594059 C15.4217822,3.00594059 18.9831683,6.57821782 18.9831683,11 C18.9831683,15.4217822 15.4217822,18.9831683 11,18.9831683 Z M9.93267327,15.9009901 C10.3792079,15.9009901 10.7930693,15.6722772 11.0435644,15.280198 L15.3891089,8.63663366 C15.5633663,8.37524752 15.6613861,8.09207921 15.6613861,7.84158416 C15.6613861,7.1990099 15.0950495,6.73069307 14.4633663,6.73069307 C14.049505,6.73069307 13.7009901,6.94851485 13.4287129,7.3950495 L9.91089109,13.0693069 L8.2990099,11.119802 C8.03762376,10.8039604 7.75445545,10.6514851 7.38415842,10.6514851 C6.74158416,10.6514851 6.20792079,11.1633663 6.20792079,11.8168317 C6.20792079,12.1108911 6.30594059,12.3613861 6.54554455,12.6554455 L8.77821782,15.3019802 C9.1049505,15.6831683 9.46435644,15.9009901 9.93267327,15.9009901 Z" id="Shape"></path>
        </g>
    </g>
</svg>