<?xml version="1.0" encoding="UTF-8"?>
<svg width="22px" height="22px" viewBox="0 0 22 22" version="1.1" xmlns="http://www.w3.org/2000/svg" xmlns:xlink="http://www.w3.org/1999/xlink">
    <title>StatusImportant</title>
    <g id="StatusImportant" stroke="none" stroke-width="1" fill="none" fill-rule="evenodd">
        <g id="ô€ž" fill="#333333" fill-rule="nonzero">
            <path d="M11,22 C17.0445545,22 22,17.0336634 22,11 C22,4.95544554 17.0445545,0 11,0 C4.95544554,0 0,4.95544554 0,11 C0,17.0336634 4.95544554,22 11,22 Z M11,18.9831683 C6.57821782,18.9831683 3.01683168,15.4217822 3.01683168,11 C3.01683168,6.57821782 6.57821782,3.00594059 11,3.00594059 C15.4217822,3.00594059 18.9831683,6.57821782 18.9831683,11 C18.9831683,15.4217822 15.4217822,18.9831683 11,18.9831683 Z M11,12.339604 C11.729703,12.339604 12.1544554,11.9366337 12.1871287,11.1851485 L12.3613861,7.31881188 C12.4049505,6.52376238 11.8277228,5.97920792 10.9891089,5.97920792 C10.150495,5.97920792 9.58415842,6.51287129 9.62772277,7.30792079 L9.79108911,11.1960396 C9.83465347,11.9366337 10.2594059,12.339604 11,12.339604 Z M11,15.9227723 C11.8277228,15.9227723 12.4485149,15.4217822 12.4485149,14.6376238 C12.4485149,13.8534653 11.8386139,13.3524752 11,13.3524752 C10.1722772,13.3524752 9.54059406,13.8534653 9.54059406,14.6376238 C9.54059406,15.4217822 10.1831683,15.9227723 11,15.9227723 Z" id="Shape"></path>
        </g>
    </g>
</svg>