<?xml version="1.0" encoding="UTF-8"?>
<svg width="22px" height="22px" viewBox="0 0 22 22" version="1.1" xmlns="http://www.w3.org/2000/svg" xmlns:xlink="http://www.w3.org/1999/xlink">
    <title>StatusImportantActive</title>
    <g id="StatusImportantActive" stroke="none" stroke-width="1" fill="none" fill-rule="evenodd">
        <g id="ô€Ÿ" fill="#FB3A25" fill-rule="nonzero">
            <path d="M11,22 C17.0445545,22 22,17.0336634 22,11 C22,4.95544554 17.0445545,0 11,0 C4.95544554,0 0,4.95544554 0,11 C0,17.0336634 4.95544554,22 11,22 Z M11.0108911,12.4158416 C10.2267327,12.4158416 9.75841584,11.980198 9.71485149,11.1960396 L9.54059406,7.1009901 C9.4970297,6.25148515 10.0960396,5.68514851 11,5.68514851 C11.8930693,5.68514851 12.5029703,6.26237624 12.4594059,7.11188119 L12.2742574,11.1742574 C12.2306931,11.980198 11.7841584,12.4158416 11.0108911,12.4158416 Z M11.0108911,16.2168317 C10.1287129,16.2168317 9.45346535,15.6940594 9.45346535,14.8554455 C9.45346535,14.0168317 10.1287129,13.4831683 11.0108911,13.4831683 C11.8930693,13.4831683 12.5574257,14.0168317 12.5574257,14.8554455 C12.5574257,15.6940594 11.8930693,16.2168317 11.0108911,16.2168317 Z" id="Shape"></path>
        </g>
    </g>
</svg>