<svg width="11px" height="12px" viewBox="0 0 11 12" version="1.1" xmlns="http://www.w3.org/2000/svg" xmlns:xlink="http://www.w3.org/1999/xlink">
  <path d="M2.95478723,12 L8.04521277,12 C8.91702128,12 9.47287234,11.5025617 9.51968085,10.6697718 L9.88829787,3.07964602 L10.4792553,3.07964602 C10.7718085,3.07964602 11,2.86725664 11,2.58779693 C11,2.30833721 10.7718085,2.09594783 10.4792553,2.09594783 L8.0393617,2.09594783 L8.0393617,1.30787145 C8.0393617,0.480670703 7.4893617,0 6.54734043,0 L4.44095745,0 C3.49893617,0 2.94893617,0.480670703 2.94893617,1.30787145 L2.94893617,2.09594783 L0.520744681,2.09594783 C0.234042553,2.09594783 0,2.30833721 0,2.58779693 C0,2.86725664 0.234042553,3.07964602 0.520744681,3.07964602 L1.10585106,3.07964602 L1.48031915,10.6697718 C1.5212766,11.5081509 2.07712766,12 2.95478723,12 Z M4.03138298,1.3581742 C4.03138298,1.09548207 4.22446809,0.927806241 4.51702128,0.927806241 L6.4712766,0.927806241 C6.76382979,0.927806241 6.95691489,1.09548207 6.95691489,1.3581742 L6.95691489,2.09594783 L4.03138298,2.09594783 L4.03138298,1.3581742 Z M3.07765957,11.0051234 C2.77340426,11.0051234 2.56276596,10.792734 2.54521277,10.4797392 L2.17659574,3.07964602 L8.80585106,3.07964602 L8.44893617,10.4797392 C8.43138298,10.7983232 8.22659574,11.0051234 7.91648936,11.0051234 L3.07765957,11.0051234 Z M3.86755319,10.1723335 C4.11329787,10.1723335 4.2712766,10.0214252 4.26542553,9.80344667 L4.09574468,4.31485794 C4.08989362,4.09687937 3.93191489,3.95156032 3.69787234,3.95156032 C3.45797872,3.95156032 3.3,4.10246856 3.30585106,4.32044714 L3.47553191,9.80903586 C3.48138298,10.0270144 3.6393617,10.1723335 3.86755319,10.1723335 Z M5.5,10.1723335 C5.73989362,10.1723335 5.9037234,10.0270144 5.9037234,9.80903586 L5.9037234,4.31485794 C5.9037234,4.09687937 5.73989362,3.95156032 5.5,3.95156032 C5.26010638,3.95156032 5.0962766,4.09687937 5.0962766,4.31485794 L5.0962766,9.80903586 C5.0962766,10.0270144 5.26010638,10.1723335 5.5,10.1723335 Z M7.12659574,10.1723335 C7.35478723,10.1723335 7.51861702,10.0270144 7.52446809,9.80903586 L7.68829787,4.32044714 C7.69414894,4.10246856 7.54202128,3.95156032 7.2962766,3.95156032 C7.06808511,3.95156032 6.90425532,4.09687937 6.89840426,4.31485794 L6.73457447,9.80344667 C6.7287234,10.0214252 6.88085106,10.1723335 7.12659574,10.1723335 Z" id="Shape"></path>
</svg>