<svg width="1em" height="1em" viewBox="0 0 395 71" version="1.1" xmlns="http://www.w3.org/2000/svg" >
    <defs>
        <path d="M80.8701172,63.9960938 C77.6328125,63.9960938 74.9143066,63.2974447 72.7145996,61.9001465 C70.5148926,60.5028483 68.8616536,58.5175781 67.7548828,55.9443359 C66.648112,53.3710938 66.0947266,50.327474 66.0947266,46.8134766 L66.0947266,19.171875 L82.6962891,19.171875 L82.6962891,43.078125 C82.6962891,45.2639974 83.2289225,46.9587402 84.2941895,48.1623535 C85.3594564,49.3659668 86.8605143,49.9677734 88.7973633,49.9677734 C90.097819,49.9677734 91.2045898,49.6910807 92.1176758,49.1376953 C93.0307617,48.5843099 93.7224935,47.7473145 94.1928711,46.626709 C94.6632487,45.5061035 94.8984375,44.101888 94.8984375,42.4140625 L94.8984375,19.171875 L111.5,19.171875 L111.5,63 L95.105957,63 L95.105957,50.9223633 L97.2641602,50.9223633 C95.9083659,54.7407227 93.950765,57.8742676 91.3913574,60.322998 C88.8319499,62.7717285 85.3248698,63.9960938 80.8701172,63.9960938 Z" id="path-1"></path>
        <filter x="-3.3%" y="-3.3%" width="111.0%" height="113.4%" filterUnits="objectBoundingBox" id="filter-2">
            <feOffset dx="2" dy="3" in="SourceAlpha" result="shadowOffsetOuter1"></feOffset>
            <feColorMatrix values="0 0 0 0 1   0 0 0 0 1   0 0 0 0 1  0 0 0 1 0" type="matrix" in="shadowOffsetOuter1"></feColorMatrix>
        </filter>
        <path d="M118.638672,63 L118.638672,19.171875 L135.240234,19.171875 L135.240234,63 L118.638672,63 Z M126.897949,16.2666016 C124.297038,16.2666016 122.173421,15.5195312 120.5271,14.0253906 C118.880778,12.53125 118.057617,10.6082357 118.057617,8.25634766 C118.057617,5.93212891 118.880778,4.02986654 120.5271,2.54956055 C122.173421,1.06925456 124.297038,0.329101562 126.897949,0.329101562 C129.498861,0.329101562 131.622477,1.06925456 133.268799,2.54956055 C134.91512,4.02986654 135.738281,5.94596354 135.738281,8.29785156 C135.738281,10.6220703 134.91512,12.53125 133.268799,14.0253906 C131.622477,15.5195312 129.498861,16.2666016 126.897949,16.2666016 Z" id="path-3"></path>
        <filter x="-8.5%" y="-2.4%" width="128.3%" height="109.6%" filterUnits="objectBoundingBox" id="filter-4">
            <feOffset dx="2" dy="3" in="SourceAlpha" result="shadowOffsetOuter1"></feOffset>
            <feColorMatrix values="0 0 0 0 1   0 0 0 0 1   0 0 0 0 1  0 0 0 1 0" type="matrix" in="shadowOffsetOuter1"></feColorMatrix>
        </filter>
        <path d="M164.126953,63.9960938 C159.450846,63.9960938 155.355794,63.0415039 151.841797,61.1323242 C148.327799,59.2231445 145.595459,56.5461426 143.644775,53.1013184 C141.694092,49.6564941 140.71875,45.6513672 140.71875,41.0859375 C140.71875,36.5205078 141.694092,32.5153809 143.644775,29.0705566 C145.595459,25.6257324 148.327799,22.9487305 151.841797,21.0395508 C155.355794,19.1303711 159.450846,18.1757812 164.126953,18.1757812 C167.336589,18.1757812 170.290283,18.6392415 172.988037,19.5661621 C175.685791,20.4930827 178.023844,21.807373 180.002197,23.5090332 C181.98055,25.2106934 183.536947,27.2305501 184.671387,29.5686035 C185.805827,31.9066569 186.428385,34.500651 186.539062,37.3505859 L170.68457,37.3505859 C170.601562,36.3821615 170.40096,35.5105794 170.082764,34.7358398 C169.764567,33.9611003 169.335693,33.2970378 168.796143,32.7436523 C168.256592,32.1902669 167.620199,31.7683105 166.886963,31.4777832 C166.153727,31.1872559 165.344401,31.0419922 164.458984,31.0419922 C162.992513,31.0419922 161.740479,31.4431966 160.702881,32.2456055 C159.665283,33.0480143 158.869792,34.1962891 158.316406,35.6904297 C157.763021,37.1845703 157.486328,38.9830729 157.486328,41.0859375 C157.486328,43.1611328 157.763021,44.9527181 158.316406,46.4606934 C158.869792,47.9686686 159.672201,49.1238607 160.723633,49.9262695 C161.775065,50.7286784 163.020182,51.1298828 164.458984,51.1298828 C165.344401,51.1298828 166.153727,50.9777018 166.886963,50.6733398 C167.620199,50.3689779 168.256592,49.9401042 168.796143,49.3867188 C169.335693,48.8333333 169.764567,48.1554362 170.082764,47.3530273 C170.40096,46.5506185 170.601562,45.6513672 170.68457,44.6552734 L186.539062,44.6552734 C186.539062,47.5052083 185.992594,50.1061198 184.899658,52.4580078 C183.806722,54.8098958 182.26416,56.8505046 180.271973,58.579834 C178.279785,60.3091634 175.914062,61.6442057 173.174805,62.5849609 C170.435547,63.5257161 167.419596,63.9960938 164.126953,63.9960938 Z" id="path-5"></path>
        <filter x="-3.3%" y="-3.3%" width="110.9%" height="113.1%" filterUnits="objectBoundingBox" id="filter-6">
            <feOffset dx="2" dy="3" in="SourceAlpha" result="shadowOffsetOuter1"></feOffset>
            <feColorMatrix values="0 0 0 0 1   0 0 0 0 1   0 0 0 0 1  0 0 0 1 0" type="matrix" in="shadowOffsetOuter1"></feColorMatrix>
        </filter>
        <path d="M206.792969,53.0390625 L206.792969,33.4492188 L208.702148,33.4492188 L219.825195,19.171875 L238.584961,19.171875 L219.991211,42.3310547 L215.342773,42.3310547 L206.792969,53.0390625 Z M191.93457,63 L191.93457,1.15917969 L208.536133,1.15917969 L208.536133,63 L191.93457,63 Z M220.240234,63 L209.78125,45.9833984 L220.489258,34.3623047 L239.083008,63 L220.240234,63 Z" id="path-7"></path>
        <filter x="-3.2%" y="-2.4%" width="110.6%" height="109.7%" filterUnits="objectBoundingBox" id="filter-8">
            <feOffset dx="2" dy="3" in="SourceAlpha" result="shadowOffsetOuter1"></feOffset>
            <feColorMatrix values="0 0 0 0 1   0 0 0 0 1   0 0 0 0 1  0 0 0 1 0" type="matrix" in="shadowOffsetOuter1"></feColorMatrix>
        </filter>
        <polygon id="path-9" points="241.573242 63 241.573242 1.15917969 258.838867 1.15917969 258.838867 48.390625 285.484375 48.390625 285.484375 63"></polygon>
        <filter x="-3.4%" y="-2.4%" width="111.4%" height="109.7%" filterUnits="objectBoundingBox" id="filter-10">
            <feOffset dx="2" dy="3" in="SourceAlpha" result="shadowOffsetOuter1"></feOffset>
            <feColorMatrix values="0 0 0 0 1   0 0 0 0 1   0 0 0 0 1  0 0 0 1 0" type="matrix" in="shadowOffsetOuter1"></feColorMatrix>
        </filter>
        <path d="M290.713867,63 L290.713867,19.171875 L307.31543,19.171875 L307.31543,63 L290.713867,63 Z M298.973145,16.2666016 C296.372233,16.2666016 294.248617,15.5195312 292.602295,14.0253906 C290.955973,12.53125 290.132812,10.6082357 290.132812,8.25634766 C290.132812,5.93212891 290.955973,4.02986654 292.602295,2.54956055 C294.248617,1.06925456 296.372233,0.329101562 298.973145,0.329101562 C301.574056,0.329101562 303.697673,1.06925456 305.343994,2.54956055 C306.990316,4.02986654 307.813477,5.94596354 307.813477,8.29785156 C307.813477,10.6220703 306.990316,12.53125 305.343994,14.0253906 C303.697673,15.5195312 301.574056,16.2666016 298.973145,16.2666016 Z" id="path-11"></path>
        <filter x="-8.5%" y="-2.4%" width="128.3%" height="109.6%" filterUnits="objectBoundingBox" id="filter-12">
            <feOffset dx="2" dy="3" in="SourceAlpha" result="shadowOffsetOuter1"></feOffset>
            <feColorMatrix values="0 0 0 0 1   0 0 0 0 1   0 0 0 0 1  0 0 0 1 0" type="matrix" in="shadowOffsetOuter1"></feColorMatrix>
        </filter>
        <path d="M335.123047,64.1206055 C330.778971,64.1206055 326.953695,63.4772949 323.647217,62.1906738 C320.340739,60.9040527 317.712158,59.0986328 315.761475,56.7744141 C313.810791,54.4501953 312.683268,51.7524414 312.378906,48.6811523 L328.731445,48.6811523 C328.92513,49.9816081 329.554606,51.0399577 330.619873,51.8562012 C331.68514,52.6724447 333.10319,53.0805664 334.874023,53.0805664 C336.50651,53.0805664 337.77238,52.8246257 338.671631,52.3127441 C339.570882,51.8008626 340.020508,51.1160482 340.020508,50.2583008 C340.020508,49.5388997 339.619303,48.9440104 338.816895,48.4736328 C338.014486,48.0032552 336.783203,47.6297201 335.123047,47.3530273 L326.905273,46.0249023 C322.505859,45.3055013 319.15096,43.8390299 316.840576,41.6254883 C314.530192,39.4119466 313.375,36.5343424 313.375,32.9926758 C313.375,29.9767253 314.198161,27.3688965 315.844482,25.1691895 C317.490804,22.9694824 319.870361,21.2747396 322.983154,20.0849609 C326.095947,18.8951823 329.838216,18.300293 334.209961,18.300293 C338.637044,18.300293 342.434652,18.9297689 345.602783,20.1887207 C348.770915,21.4476725 351.226562,23.2254232 352.969727,25.5219727 C354.712891,27.8185221 355.625977,30.5577799 355.708984,33.7397461 L340.601562,33.7397461 C340.573893,32.4669596 340.01359,31.4016927 338.920654,30.5439453 C337.827718,29.6861979 336.478841,29.2573242 334.874023,29.2573242 C333.269206,29.2573242 332.037923,29.5270996 331.180176,30.0666504 C330.322428,30.6062012 329.893555,31.277181 329.893555,32.0795898 C329.893555,32.7713216 330.246338,33.3592936 330.951904,33.8435059 C331.657471,34.3277181 332.660482,34.6805013 333.960938,34.9018555 L343.34082,36.4790039 C347.961589,37.2537435 351.371826,38.6026204 353.571533,40.5256348 C355.77124,42.4486491 356.871094,45.0564779 356.871094,48.3491211 C356.871094,51.4480794 355.971842,54.1804199 354.17334,56.5461426 C352.374837,58.9118652 349.843099,60.7657064 346.578125,62.107666 C343.313151,63.4496257 339.494792,64.1206055 335.123047,64.1206055 Z" id="path-13"></path>
        <filter x="-3.4%" y="-3.3%" width="111.2%" height="113.1%" filterUnits="objectBoundingBox" id="filter-14">
            <feOffset dx="2" dy="3" in="SourceAlpha" result="shadowOffsetOuter1"></feOffset>
            <feColorMatrix values="0 0 0 0 1   0 0 0 0 1   0 0 0 0 1  0 0 0 1 0" type="matrix" in="shadowOffsetOuter1"></feColorMatrix>
        </filter>
        <path d="M392.232422,19.171875 L392.232422,31.7890625 L359.195312,31.7890625 L359.195312,19.171875 L392.232422,19.171875 Z M366.583008,7.21875 L383.18457,7.21875 L383.18457,46.9794922 C383.18457,48.2799479 383.440511,49.1722819 383.952393,49.6564941 C384.464274,50.1407064 385.48112,50.3828125 387.00293,50.3828125 C387.75,50.3828125 388.697673,50.3828125 389.845947,50.3828125 C390.994222,50.3828125 391.789714,50.3828125 392.232422,50.3828125 L392.232422,63 C391.485352,63 390.247152,63 388.517822,63 C386.788493,63 384.983073,63 383.101562,63 C377.346354,63 373.15446,61.955485 370.525879,59.8664551 C367.897298,57.7774251 366.583008,54.4501953 366.583008,49.8847656 L366.583008,7.21875 Z" id="path-15"></path>
        <filter x="-4.5%" y="-2.7%" width="115.1%" height="110.8%" filterUnits="objectBoundingBox" id="filter-16">
            <feOffset dx="2" dy="3" in="SourceAlpha" result="shadowOffsetOuter1"></feOffset>
            <feColorMatrix values="0 0 0 0 1   0 0 0 0 1   0 0 0 0 1  0 0 0 1 0" type="matrix" in="shadowOffsetOuter1"></feColorMatrix>
        </filter>
    </defs>
    <g id="Artboard" stroke="none" stroke-width="1" fill="none" fill-rule="evenodd">
        <g id="Path" fill-rule="nonzero">
            <use fill="black" fill-opacity="1" filter="url(#filter-2)" xlink:href="#path-1"></use>
            <use fill="#6D6969" xlink:href="#path-1"></use>
        </g>
        <g id="Shape" fill-rule="nonzero">
            <use fill="black" fill-opacity="1" filter="url(#filter-4)" xlink:href="#path-3"></use>
            <use fill="#6D6969" xlink:href="#path-3"></use>
        </g>
        <g id="Path" fill-rule="nonzero">
            <use fill="black" fill-opacity="1" filter="url(#filter-6)" xlink:href="#path-5"></use>
            <use fill="#6D6969" xlink:href="#path-5"></use>
        </g>
        <g id="Shape" fill-rule="nonzero">
            <use fill="black" fill-opacity="1" filter="url(#filter-8)" xlink:href="#path-7"></use>
            <use fill="#6D6969" xlink:href="#path-7"></use>
        </g>
        <g id="Path" fill-rule="nonzero">
            <use fill="black" fill-opacity="1" filter="url(#filter-10)" xlink:href="#path-9"></use>
            <use fill="#6D6969" xlink:href="#path-9"></use>
        </g>
        <g id="Shape" fill-rule="nonzero">
            <use fill="black" fill-opacity="1" filter="url(#filter-12)" xlink:href="#path-11"></use>
            <use fill="#6D6969" xlink:href="#path-11"></use>
        </g>
        <g id="Path" fill-rule="nonzero">
            <use fill="black" fill-opacity="1" filter="url(#filter-14)" xlink:href="#path-13"></use>
            <use fill="#6D6969" xlink:href="#path-13"></use>
        </g>
        <g id="Shape" fill-rule="nonzero">
            <use fill="black" fill-opacity="1" filter="url(#filter-16)" xlink:href="#path-15"></use>
            <use fill="#6D6969" xlink:href="#path-15"></use>
        </g>
        <path d="M61.0306822,31.9844165 C61.0306822,38.8817235 59.6895392,44.6950239 57.0072531,49.4243178 C54.3249671,54.1536116 50.7048893,57.7333543 46.1470197,60.1635458 C41.5891502,62.5937373 36.506924,63.808833 30.9003411,63.808833 C25.2534231,63.808833 20.1560712,62.5836535 15.6082855,60.1332944 C11.0604997,57.6829354 7.45050569,54.0931089 4.77830341,49.3638151 C2.10610114,44.6345212 0.77,38.8413884 0.77,31.9844165 C0.77,25.0871095 2.10610114,19.2738091 4.77830341,14.5445153 C7.45050569,9.81522142 11.0604997,6.23547876 15.6082855,3.80528725 C20.1560712,1.37509575 25.2534231,0.16 30.9003411,0.16 C36.506924,0.16 41.5891502,1.37509575 46.1470197,3.80528725 C50.7048893,6.23547876 54.3249671,9.81522142 57.0072531,14.5445153 C59.6895392,19.2738091 61.0306822,25.0871095 61.0306822,31.9844165 Z M43.726912,31.9844165 C43.726912,28.2735847 43.2378486,25.1425703 42.2597217,22.5913734 C41.2815949,20.0401765 39.839614,18.1040904 37.9337792,16.7831149 C36.0279443,15.4621394 33.683465,14.8016517 30.9003411,14.8016517 C28.1172172,14.8016517 25.7727379,15.4621394 23.8669031,16.7831149 C21.9610682,18.1040904 20.5190874,20.0401765 19.5409605,22.5913734 C18.5628336,25.1425703 18.0737702,28.2735847 18.0737702,31.9844165 C18.0737702,35.6952484 18.5628336,38.8262627 19.5409605,41.3774596 C20.5190874,43.9286565 21.9610682,45.8647427 23.8669031,47.1857181 C25.7727379,48.5066936 28.1172172,49.1671813 30.9003411,49.1671813 C33.683465,49.1671813 36.0279443,48.5066936 37.9337792,47.1857181 C39.839614,45.8647427 41.2815949,43.9286565 42.2597217,41.3774596 C43.2378486,38.8262627 43.726912,35.6952484 43.726912,31.9844165 Z" id="Shape" fill="#6D6969" fill-rule="nonzero"></path>
        <polygon id="Path" fill="#5DA947" points="23.9688679 39.970772 37.0374496 39.970772 41.7566596 45.9000359 49.7430151 54.9754399 60.1494783 67.56 45.2658158 67.56 37.8844873 58.9686176 32.9232664 51.8292998"></polygon>
    </g>
</svg>